<?xml version="1.0" encoding="UTF-8"?>
<svg id="Layer_1" data-name="Layer 1" xmlns="http://www.w3.org/2000/svg" viewBox="0 0 512 512">
  <defs>
    <style>
      .cls-1 {
        fill: #010101;
      }

      .cls-2 {
        fill: #020202;
      }

      .cls-3 {
        fill: #fff;
      }

      .cls-4 {
        fill: #fefefe;
      }

      .cls-5 {
        fill: #909090;
      }

      .cls-6 {
        fill: #c1c1c1;
      }

      .cls-7 {
        fill: #333;
      }

      .cls-8 {
        fill: silver;
      }

      .cls-9 {
        fill: #707070;
      }

      .cls-10 {
        fill: #5e5e5e;
      }
    </style>
  </defs>
  <path d="m.11,376.96v-108.96c1.3-1.6,5.13.65,4.9-2.74-.18-2.7-3.55-.77-4.9-2.26C.11,176.71.14,90.41.02,4.11.01.69.69,0,4.11.01c56.98.14,113.95.1,170.93.1.57.57.98,1.26,1.45,1.91,2.36,3.26,3.75,3.26,6.11,0,.47-.65.88-1.34,1.45-1.91h11c.4,2.87-1.98,3.39-3.75,4.41-1.7.97-3.25,2.19-2.07,4.29,1.33,2.39,3.14,1.34,5.08.4,4.07-1.98,5.19-4.96,3.75-9.1h151.94c.88,1.2-.08,2.98,1.29,4.2,2.1-.84.69-3.05,1.71-4.2C404.48.11,456,.17,507.51,0c3.96-.01,4.56,1.12,4.48,4.7-.25,11.13-.09,22.27-.09,33.4-.24.23-.47.47-.76.63-1.8.99-4.57,1.13-4.57,3.87s2.77,2.88,4.57,3.87c.29.16.53.39.76.63v123.95c-.65.69-1.49,1.03-2.39,1.26-3.2,1.45-2.27,3.14-.29,4.88.95.53,1.93,1.02,2.68,1.85,0,109.62-.02,219.25.1,328.87,0,3.42-.67,4.1-4.09,4.09-167.93-.11-335.86-.11-503.79,0-3.42,0-4.21-.65-4.1-4.1.3-9.32.1-18.66.1-27.99,1.85-1.61,6.36.71,6.13-3.73-.2-3.89-4.32-1.68-6.13-3.26v-86.96c.57-.57,1.26-.98,1.91-1.45,3.26-2.36,3.26-3.75,0-6.11-.65-.47-1.34-.88-1.91-1.45Z"/>
  <path d="m198.03.11c.87,1.97,3.84,3.62,1.83,6.05-2.16,2.6-4.91,4.98-8.3,5.71-2.06.44-3.73-1.33-4.23-3.43-.54-2.23.66-3.89,2.66-4.73,1.98-.83,4.11-1.33,5.04-3.59h3Z"/>
  <path d="m.11,472.92c1.62.07,3-1.49,4.76-.59,2.1,1.07,3.68,2.59,2.88,5.04-1.32,4.07-4.43,3.66-7.64,2.55v-7Z"/>
  <path d="m184.04.11c.04,3.14-1.2,5.76-4.5,5.76s-4.53-2.62-4.5-5.76h9Z"/>
  <path d="m.11,376.96c3.14-.04,5.76,1.2,5.76,4.5,0,3.3-2.62,4.53-5.76,4.5v-9Z"/>
  <path d="m.11,263.01c.63-.15,1.32-.19,1.88-.47,1.82-.91,3.12-.18,4.27,1.2.98,1.18.98,2.35,0,3.53-1.15,1.39-2.44,2.11-4.27,1.2-.56-.28-1.25-.32-1.88-.47,0-1.67,0-3.33,0-5Z"/>
  <path d="m511.9,179.04c-1.1-.04-2.28.18-3-1-2.85-2.33-2.84-4.66,0-7h3v8Z"/>
  <path d="m352.97.11c.32.91.8,1.8.92,2.74.24,1.78-.07,3.25-2.42,3.25s-2.66-1.47-2.42-3.25c.13-.94.6-1.83.92-2.74,1,0,2,0,3,0Z"/>
  <path d="m511.9,47.09c-3.46.11-6.87-.58-6.71-4.74.15-3.77,3.45-4.41,6.71-4.26v2q-3.75,2.5,0,5v2Z"/>
  <path d="m511.9,45.09c-1.95-.37-5.13,1.2-4.91-2.74.2-3.49,3.11-1.83,4.91-2.26v5Z"/>
  <path d="m359.97,87.08c.82-.02,1.57-.19,2-1,5.46-1.76,9.75-5.35,13.99-9,.33-.67.67-1.33,1-2,2.61-1.56,4.4-4.04,6.7-5.97,2.4-2.01,4.64-4.13,7.82-1.63,2.98,2.34,3.4,5.18,2.19,8.86-2.87,8.73-7.12,16.66-12.22,24.27-9.77,14.58-21.16,27.77-34.18,39.43-14.69,13.15-30.02,25.56-47.12,35.59-.87.51-1.56,1.25-2.38,1.81-4.31,2.06-8.42,4.49-12.63,6.74-3.62,1.93-7.29,2.15-10.73-.23-2.61-1.8-6.17-1.43-8.41-3.92-1-.33-2-.67-3-1-4.66-.85-9.33-.85-13.99,0-1,.33-2,.67-3,1-1.78.79-3.85,1-5.42,2.21-5.94,4.59-11.77,4.07-17.57-.21-32.01-17.76-59.56-40.87-82.97-68.97-5.85-7.65-11.54-15.41-15.99-23.99-.02-.82-.19-1.57-1-2-.83-3.22-2.78-5.95-4-9v-7c2.54-4.39,8.12-5.05,12.11.03,4.82,6.13,11.46,9.77,16.88,14.97,1.46-.16,2.75.32,4,1,1.48.99,2.82.62,3.97-.54,8.07-8.06,17.88-13.81,27.01-20.45,1-.33,2-.67,3-1,3.76-3.39,8.61-4.77,12.99-7,15.68-6.55,32.12-9.72,48.98-11,4.79-1.08,9.65-.19,14.47-.48,3.21.25,6.37.81,9.52,1.48h7c3.08,1.92,6.73,1.03,10,2,8.66,3,17.86,4.45,25.99,9,14.72,6.35,27.7,15.33,39.53,26.06,1.55,1.4,2.86,3.48,5.45,1.93Z"/>
  <path d="m217.02,255.01c3.88-2.92,2.24-7.22,1.79-10.55-1.01-7.32.04-14.34,1.21-21.43,1.88-4.25,2.09-9.14,5-12.99,6.53-10.79,14.47-20.05,27.76-22.08,6.66-1.02,12.96.4,18.8,4.6,14.47,10.41,21.02,24.8,22.35,42.04.18,2.31.79,4.6.55,6.95.32,4.23-.7,8.53.65,12.7,3.7,4.83,9.8,6.05,14.41,9.57,6.52,4.99,7.07,9.83.1,14.24-17.46,11.05-27.2,27.7-34.98,45.99-4.3,10.1-7.07,20.7-10.61,31.05-1.36,3.95-2.71,8-7.67,7.81-4.79-.18-6.88-3.65-8.15-8.07-5.51-19.15-12.04-37.96-23.2-54.65-5.52-8.26-12.36-15.61-20.85-21.11-1.12-.73-2.2-1.51-3.22-2.35-5.12-4.18-5.24-6.91-.27-11.28,4.9-4.3,11.21-6.46,16.35-10.43Z"/>
  <path d="m247.01,458.93c-5.04-10.07-11.49-19.28-17.31-28.88-8.83-14.57-17.67-29.14-26.5-43.71-.17-.28-.28-.6-.46-.88-3.9-6.43-4.91-6.48-9.71-.49-.29,1.71-1.64,2.36-3,3-4.85,3.64-8.64,8.43-13.46,12.16-3.24,2.51-.77,8.9,3.46,9.83,3.18-.66,4.99,1.34,4.53,3.85-.67,3.71-3.71,3.3-6.53,2.14-4.71-3.24-8.47-7.99-14.98-8.34-1.73-.09-3.35-2.38-5.02-3.65-.35-.37-.81-.78-1.27-.65-1.87.53-3.65.76-4.9-1.13-1.29-1.96-.19-3.43,1.11-4.86.35-.38.33-.9.06-1.37-2.05-6.23-6.63-11.02-9.54-16.78-1.78-3.53-4.68-6.52-6.28-10.12-2.43-5.45-6.92-6.82-11.99-6.83-3.48,0-9.46,7.18-10.16,11.59-.36,2.26-1.62,3.74-3.61,2.92-4.03-1.64-6.2,1.02-8.7,3.04-4.24,3.44-8.38,6.99-12.61,10.45-1.75,1.44-3.84,1.91-6.08,1.71-1.17-.16-1.53-1.14-2-2-4.27-2.39-3.76-6.16-2.11-9.55,5.98-12.25,11.32-24.73,15.83-37.62,5.1-14.59,8.61-29.53,11.26-44.71.09-.49-.03-1.02.09-1.49,1.57-6.14,3.56-12.31-2.08-17.59-.85-1-.84-2,0-3,4.43,0,6.07-2.46,6.01-6.61-.07-5.59-.05-11.18,0-16.77.02-1.58-.54-3.33.98-4.62,2.43,3.11.96,6.74,1.38,10.11-.57,41.96-10.13,81.76-28.7,119.4-.59,1.19-1.19,2.38-1.62,3.64-.78,2.32-.26,4.27,1.71,5.75,1.99,1.49,3.8.69,5.43-.65,7.57-6.22,15.33-12.21,22.74-18.62,3.94-3.83,8.37-7.09,12.68-10.48,4.06-3.19,6.26-2.79,8.84,1.57,7.7,13.02,15.94,25.71,23.72,38.68.68,1.14,1.39,2.28,2.24,3.3,3.39,4.04,5.55,4.18,9.64.83,7.61-6.23,14.36-13.35,21.35-20.22,6.16-6.06,8.93-5.61,13.39,1.83,14.71,24.52,29.93,48.74,44.9,73.1,4.19,6.82,7.7,6.78,12.36.37,6.55-9.04,11.99-18.76,17.89-28.21,1.21-1.94,2.1-4.23,4.64-4.95.5.01.95.17,1.34.5-6.81,10.96-13.62,21.91-20.43,32.87-.7,1.12-1.39,2.25-2.13,3.35-4.72,7.04-7.71,7.45-13.82,1.91-.48-.44-1.07-.76-1.61-1.14-.74-.46-1.04-1.15-1-2Z"/>
  <path d="m286,423.94h-1c-1.46-2.17.11-3.82,1.09-5.44,7.55-12.56,15.36-24.96,23.05-37.44,2.85-4.62,4.5-4.84,8.76-1.62,8.14,6.15,14.51,14.2,22.28,20.77,6.24,5.27,8.39,5.29,13.03-1.59,8.46-12.57,16.09-25.67,24.08-38.54,3.61-5.82,5-6.06,10.49-1.71,10.18,8.07,20.34,16.17,30.35,24.45.77.64,1.53,1.29,2.34,1.87,2.3,1.67,4.63,3.8,7.6,1.6,3.13-2.31,1.4-5.12.21-7.63-2.43-5.12-4.97-10.17-7.15-15.41-12.12-29.15-18.97-59.49-21.61-90.93-2.04-24.25-.28-48.48-.81-72.72-.51-23.26-4.92-45.5-15.58-66.34-4.13-8.08-4.31-8.25-12.91-6.51-.82-.26-1.45-.66-1.25-1.68,6.16-6.49,10.44-3.94,14.84,2.93,2.2,3.44,3.52,7.44,5.21,11.12,1.58.59,1.6-.88,2.27-1.42,1.18-.95,2.35-1.85,4.01-.93,1.64.92,2.41,2.1,1.88,4.06-.39,1.42-.12,3.26-1.34,4.17-4.71,3.5-2.11,6.74.12,10.06,1.79,1.41,2.6,3.01,1.67,5.37-.43,1.1-.57,2.49.32,3.62,1.18,12.5,3.97,24.88,3.01,37.56-.14,1.86.88,2.04,2.49,2.02,1.67-.03,2.88,1.21,2.91,2.86.03,1.65-1.19,3.08-2.81,2.92-3.12-.31-2.6,1.69-2.61,3.45-.01,16.15-.76,32.34.21,48.43.95,15.79,2.83,31.56,6.01,47.14,5.24,25.62,14.06,49.95,25.7,73.31,1.41,2.82,1.28,5.03-1.25,7.02-2.83,2.22-5.98,3.49-9.12,1.16-6.5-4.84-12.78-9.99-19.14-15.02-6.36-5.03-12.75-10.02-19.05-15.13-1.39-1.13-2.45-1.89-3.39.26-2.44,5.59-8.42,9.57-7.6,16.67.06.55-.39,1.47-.86,1.71-8.69,4.45-10.4,14.12-15.76,21.04-.81,1.05-1.43,2.24-2.22,3.31-4.42,5.96-6.77,6.5-13.52,3.2-4.42.43-4.63-3.37-6-6-6.06-5.89-12.2-11.7-18.14-17.72-2.43-2.46-3.58-2.38-5.46.73-8.3,13.75-16.89,27.33-25.38,40.97Z"/>
  <path d="m221.02,205.03c-1.57.9-2.9,2.42-5,2-3.1.21-5.26,4.66-9,2-5.6-1.41-11.39.35-16.99-1-5.26-1.72-9.68-4.76-14.09-8.1-9.54-7.24-9.18-23.68-5.75-30.51,3.11-6.2,7.38-7.06,12.84-2.89,9.51,7.26,19.56,13.67,29.99,19.51,3.21,2.36,7.21,3.38,10.19,6.19,4.73,4.46,4.77,7.05-.09,11.47-.61.56-1.46.79-2.1,1.33Z"/>
  <path d="m344.97,183.04v2c-3.95,14.76-15.42,23.47-30.89,23.48-7.76,0-15.59.73-22.67-3.74-2.78-1.76-5.38-3.39-5.36-7.11.02-4,3.07-5.72,5.94-7.25,11.43-6.1,22.38-12.96,33.02-20.32,1.37-.95,2.55-2.1,3.94-3.04,6.86-4.64,12.28-2.7,14.44,5.38.32,1.19.74,2.15,1.53,3.02,1.03,1.68,1.36,3.51,1.16,5.45-.14.83-.57,1.51-1.1,2.13Z"/>
  <path d="m208.03,238.02c2.51,6.92.81,11.71-5.43,15.29-8.78,5.03-17.57,10.05-26.34,15.09-1.11.64-2.72.88-2.83,2.49-.12,1.71,1.53,1.98,2.63,2.61,5.03,2.87,9.94,5.97,15.14,8.5,13.76,6.69,22.86,17.85,30.18,30.76,13.1,23.11,21.1,48.22,28.66,73.5,1.98,6.62,3.99,13.24,6.32,20.94,5.48-18.13,10.43-35.22,15.87-52.15,2.22-6.91,5.52-13.46,8.31-20.18,1.09-2.63,3.1-5.03.72-8.19-.84-1.12-.74-3.55,1.81-3.62,3.2-.08,4.09-2.61,5.16-4.72,3.96-7.89,8.67-15.29,14.22-22.13,3.92-4.83,9.26-7.95,14.15-11.65,7.11-5.37,15.93-7.64,23.45-13.69-6.39-3.81-12.54-7.52-18.74-11.16-2.86-1.68-5.66-3.56-8.72-4.79-7.4-2.97-9.77-8.43-8.63-15.91,1.91-.35,2.33,1.19,2.3,2.35-.16,5.7,4.09,7.99,7.92,10.64.85.4,1.63.89,2.35,1.49,2.81,2.89,6.54,4.23,10.04,5.95,4.36,2.75,8.99,5.02,13.25,7.95,4.97,3.43,4.87,4.57-.44,7.83-6.1,3.74-12.6,6.72-18.75,10.37-13.85,8.21-23.07,20.34-30.2,34.32-8.86,17.36-15.75,35.52-21.24,54.21-3.43,10.95-6.38,22.05-10.04,32.92-.51,1.51-.41,3.79-2.47,3.9-2.58.13-2.96-2.36-3.46-4.21-2.91-10.76-6.08-21.45-9.56-32.04-8.33-25.32-16.82-50.58-32.73-72.51-8.12-11.19-19.99-17.28-31.65-23.69-2.77-1.52-5.72-2.7-8.36-4.48-3.11-2.1-3.1-4.09.19-5.96,7.95-4.53,15.84-9.18,23.79-13.69,5.81-3.3,10.6-6.81,11.59-13.87.14-.97.64-1.89,1.54-2.49Z"/>
  <path d="m114.07,367.96c-3.44,4.81-8.87,7.35-13.04,11.34-2.97,2.84-6.44,5.16-9.59,7.83-2.33,1.97-4.64,3.23-7.51,1.09-2.99-2.23-3.61-4.91-1.86-8.27,6.06-11.63,11.03-23.7,15.3-36.13,4.74-13.8,7.89-27.93,10.75-42.19,1.92-9.54,2.3-19.28,4.29-28.83.92-4.39-.16-9.19-.33-13.8.99-1.71.49-3.58.49-5.36.04-21.42.02-42.84.03-64.24-.71-3.82,1.65-7.52.48-11.37,1.31-8.5,3.65-16.74,6-24.99-.17-3.14-.19-6.2,3.81-7.11,2.26,2.2,1.24,4.64.35,6.94-2.42,6.23-4.82,12.69-5.1,19.21-.38,8.94-3.02,17.55-2.71,26.57.61,17.77.25,35.56.35,53.33.06,9.43-.35,19.08-1.89,28.66-1.66,10.29-2.85,20.68-4.84,30.95-2.38,12.27-5.75,24.24-9.81,36.04-.79,2.31-2.05,4.62-.93,7.2,1.27,3.11-.25,5.88-1.34,8.56-2.43,5.97-5.09,11.84-8.27,17.92,5.93-4.57,11.29-9.3,16.91-13.69,1.53-1.2,2.96-2.69,5.04-3.03,1.85.41,2.97,1.56,3.45,3.38Z"/>
  <path d="m217.02,255.01c-1.38,3.46-4.94,4.14-7.67,5.76-3.45,2.04-6.81,4.07-9.62,7-2.15,2.25-2.3,4.31,0,6.43,1.46,1.34,2.86,2.81,4.51,3.88,14.91,9.65,24.42,23.62,31.46,39.49,5.5,12.41,10.04,25.19,13.46,38.35.93,3.57,3.68,5.72,7.17,5.93,4.05.24,5.54-3.07,6.59-6.35,4.74-14.84,9-29.87,16.21-43.78,7.03-13.56,15.91-25.39,29.01-34.03,7.75-5.11,6.8-8.38.33-13.14-3.66-2.69-7.95-4.15-11.49-6.92-.92-.72-2.02-1.21-2.01-2.62-.58-.67-.56-1.33,0-2,4.71,4.87,11.01,7.34,16.7,10.63,6.18,3.57,5.27,11.01-.08,14.58-5.51,3.68-11.21,7.18-15.57,12.29-2.08,2.44-4.79,4.6-3.71,8.65.51,1.89-1.03,3.94-2.95,3.96-3.84.05-4.73,2.87-6.15,5.37-8.37,14.66-13.08,30.76-18.11,46.71-1.45,4.59-2.92,9.63-8.49,9.54-5.42-.09-7.6-4.7-9.11-9.58-2.83-9.17-6.05-18.21-9.06-27.33-.74-2.25-1.39-4.01-4.37-4.59-3.29-.64-4.66-3.1-2.39-6.36.67-.97,1.66-1.93.54-3.04-3.41-3.37-3.82-8.41-6.87-12.01-1.91-2.25-3.07-5.14-6.75-5.19-1.28-.02-2.81-1.06-2.88-2.43-.46-8.36-8.11-10.39-12.89-14.93-.59-.56-1.37-.92-2.05-1.4-6.24-4.38-6.79-8.47-.9-13.04,5.19-4.02,10.71-7.81,17.13-9.83Z"/>
  <path d="m208.03,238.02c-.42,8.26-4.61,13.47-12.05,17.2-9.13,4.57-17.73,10.22-26.96,15.63,5.33,4.96,11.79,7.42,17.74,10.29,20.8,10.05,32.1,27.97,41.1,47.88,11.34,25.1,19.37,51.37,26.68,77.88.33,1.21.29,2.72,2.3,3.78,3.74-12.31,7.45-24.51,11.16-36.71.5-.34.95-.29,1.36.15.98,1.58.58,3.21.12,4.82-3.12,10.88-6.2,21.77-9.95,32.45-.67,1.91-.93,4.84-3.62,4.76-2.59-.07-2.95-2.88-3.59-4.86-4.7-14.73-8.08-29.87-13.05-44.5-7.23-21.28-14.89-42.37-27.95-61.07-8.47-12.12-20.71-18.98-33.18-25.71-2.64-1.42-5.32-2.76-7.92-4.25-5.1-2.92-5.2-6.06-.1-9.22,4.09-2.54,8.44-4.67,12.62-7.08,4.62-2.65,9.13-5.49,13.81-8.02,5.13-2.78,7.85-6.74,8.47-12.6.39-3.68.19-7.33.09-10.94-.12-4.42-3.81-5.53-7.51-5.61-9.44-.21-17.95-3.3-25.79-8.29-3.46-2.21-7.05-4.51-8.31-8.88.04-.52.28-.95.68-1.29.67-.07,1.4-.04,1.85.47,6.24,6.98,14.43,10.68,23,13.74,3.95.93,7.95,1.2,12,1,1.25.9,2.87.74,4.18,1.48,4.37,2.44,5.07,5.28,2.81,11.52v6Z"/>
  <path d="m293.99,241.01c-.93-10.93-2.47-21.74-8.21-31.38-6.82-11.43-15.92-20.19-29.87-21.29-7.19-.56-13.41,3.11-18.67,7.99-4.49,4.18-8.77,8.57-12.22,13.69.57-5.57,4.77-9.06,8.25-12.44,6.79-6.6,14.53-12.07,24.98-10.56,1.97.28,3.62-.13,4.07-2.48.41-2.15,2.88-2.65,3.69-4.5,3-.17,5.39,1.51,7.7,2.95,4.89,3.05,9.23,2.28,13.72-.83,3.22-2.23,6.7-4.12,10.57-5.12.33-.42.67-.42,1,0-4.62,3.6-9.8,6.28-15.18,8.43-4.41,1.76-8.78.57-12.54-2.31-2.12,5.16.06,7.86,4.06,11.02,11.3,8.96,17.41,20.96,18.81,35.47.37,3.79.85,7.56.85,11.37-.33.45-.67.45-1,0Z"/>
  <path d="m298.99,177.04h-1c4.95-4.98,11.42-7.81,17.03-11.87,17.25-12.49,33.7-25.93,47.87-41.78,12.48-13.96,23.91-28.88,30.12-47,.65-1.89,1.33-3.67.25-5.73-1.8-3.44-4.26-3.89-7.59-1.93-3.14,1.85-4.91,5.48-8.71,6.35,2.14-2.31,4.29-4.62,6.43-6.93,1.99-2.16,3.92-4.14,7.26-2.23,3.52,2.01,4.97,5.06,4.11,8.79-.78,3.37-2.19,6.62-3.59,9.8-.94,2.13-1.71,3.95.45,5.79,1.26,1.07,1.76,2.45.55,3.94-.99,1.22-2.16,2.27-3.84,1.46-1.95-.94-2.94-.22-3.98,1.5-9.56,15.72-21.46,29.57-35.03,41.9-15.59,14.17-31.86,27.54-50.33,37.94Z"/>
  <path d="m344.97,183.04v-2c3.71-2.47,1.55-3.78-1-5-1.46-3.21-1.47-6.96-5.17-9.27-3.09-1.93-5.38-1.91-8.13.1-12.34,9.02-25.21,17.16-38.74,24.3-6.93,3.66-6.74,9.17.27,12.91,15,8,39.29,5.77,49.35-11.42,1.4-2.39,2.29-5.08,3.41-7.63.05,11.66-12.3,21.89-23.03,23.49-8.98,1.34-18.54,2.08-27.53-1.53-1.38-.55-2.82-1.07-4.06-1.86-2.82-1.78-5.36-3.62-5.44-7.65-.08-4.21,3.09-5.95,5.68-7.31,13.23-6.92,25.8-14.8,37.75-23.74,7.29-5.45,12.41-3.81,15.5,4.81.45,1.26.37,2.58,2.18,2.8,2.76.34,4.97,1.78,4.71,4.75-.27,3.16-2.75,4.29-5.75,4.24Z"/>
  <path d="m303.99,236.02c-2.82-7.79-1.4-12.99,4.83-17.14,1.37-.91.77-1.9.77-3.01,0-2.29,1.34-3.89,3.52-4.18,2.3-.3,4.14,1.3,4.15,3.4.03,3.71,1.73,2.97,4.09,2.33,10.5-2.85,19.59-7.92,26.62-16.38.82.21,1.34.71,1.56,1.53-1.27,5.29-5.65,7.88-9.65,10.61-6.04,4.12-12.7,6.89-20.07,7.66-.49-.05-.98-.19-1.46-.14q-11.51,1.17-13.17,12.72c-.14.98-.35,1.94-1.19,2.6Z"/>
  <path d="m148.05,86.08c-6.92-2.57-11.61-7.98-16.47-13.13-4.25-4.5-8.88-5.25-12.52-1.87,1.43-4.18,5.34-6.8,6.53-11.42.58-2.24,4.25-1.01,5.37,1.44,1.3,2.84,2.86,5.91,2.87,8.9.03,5.12,3.49,8.02,6.95,8.47,5.25.69,5.86,4.14,7.26,7.6Z"/>
  <path d="m140.06,113.07c6.22,6.39,12.51,12.72,18.64,19.19,10.59,11.17,22.32,21,34.77,30.02,8.97,6.5,18.12,12.73,27.9,17.99.67.36,1.11,1.17,1.65,1.77-6.28-1.11-10.8-5.56-15.94-8.71-23.19-14.19-43-32.47-61.39-52.31-2.15-2.32-4.88-4.53-5.64-7.95Z"/>
  <path d="m129.06,128.06c.78-3.44,2.34-6.25,6.14-6.96,4.03-.75,7.03.86,9.4,4.14,5.74,7.93,11.65,15.71,18.67,22.6,3.5,3.43,3.65,7.5,1.68,11.9-1.56,3.47-2.68,7.13-4.18,10.64-.59,1.38-.35,3.55-2.72,3.67-1.91-3.84,1-6.84,1.76-10.22.81-3.59,4.23-6.47,2.87-10.63-.22-.4-.41-.81-.62-1.21-3.7-4.9-8.11-9.19-12.03-13.9-.31-.34-.58-.71-.83-1.09-1.63-2.45-3.4-4.79-5.3-7.05-.3-.35-.57-.72-.83-1.1-4.25-5.35-5.81-5.59-11.01-1.76-.88.65-1.7,1.59-3.01.96Z"/>
  <path d="m213.03,186.04c-10.2-4.13-18.94-10.63-27.68-17.12-3.29-2.44-6.7-5.81-11.04-3.22-4.11,2.45-4.84,6.86-5.41,11.59-1.86,15.39,6.55,23.61,19.17,29.31.72.33,1.32.95,1.97,1.43-11.5-1.79-24.5-13.11-22.63-29.37.57-4.98,1.44-9.23,4.56-13.04,2.69-3.3,6.25-3.7,9.27-1.34,9.91,7.77,20.67,14.22,31.27,20.92.25.16.35.55.51.84Z"/>
  <path d="m491.78,324.8c-.54,2.05-1.69,4.07-3.9,3.74-2.07-.32-4.64-2.43-3.62-4.43,1.59-3.11-.35-3.35-2.01-4.62-2.5-1.9-2.55-4.46.2-6.04,1.83-1.06,2.71-1.5,1.14-3.48-1.37-1.73-.22-3.14,1.2-4.19,1.74-1.29,3.39-.92,4.91.54,1.5,1.44,1.61,3.48.18,4.36-3.61,2.2-1.22,5.77-2.44,8.45-.77,1.7,1.02,1.64,1.92,2.18,1.31.78,2.46,1.72,2.43,3.5Z"/>
  <path d="m333.98,16.1c-1.99,0-4,.23-5.07-2.15-.66-1.47-.28-2.69.65-3.65,1.8-1.85,3.91-1.61,5.84-.21,1.59,1.15,2.43.52,3.03-.94.94-2.3,2.49-3.44,5.04-2.97,1.27.23,2.03.93,2.4,2.19.83,2.85-1.11,4.23-2.89,5.73-3.24,4.74-3.76,4.86-9,2Z"/>
  <path d="m183.04,66.08c-3.34,4.5-8.77,6.27-12.84,9.85-4.18,3.69-8.7,7-13.02,10.54-1.63,1.34-3.17,2.54-5.13.6,1.78-.21,4.69.43,2.1-2.96-1.57-2.05-1.17-4.08.63-5.73,1.67-1.53,3.77-1.73,5.35-.1,1.75,1.81,2.72,1.16,4.45-.1,5.96-4.32,11.64-9.08,18.46-12.11Z"/>
  <path d="m368.96,125.06c.33.33.67.67,1,1,.33.34.52.75.55,1.23-1.85,4.04-4.96,7.11-7.92,10.29-2.01,2.13-4.52,3.84-5.68,6.7-.19.41-.45.79-.73,1.14-2.15,1.84-4.66,3.39-5.33,6.47-.64,2.04-.68,4.12-.46,6.23.3,2.64,2.89,5.12.57,7.94-2.75-2.86-3.35-6.76-4.81-10.22-.82-1.94.03-4.03,1.34-5.59,7.1-8.44,14.3-16.79,21.46-25.18Z"/>
  <path d="m247.01,458.93c.81.43.98,1.18,1,2,.24,3.11-1.68,5.3-3.47,7.39-1.39,1.63-3.36,2.1-5.3.64-1.92-1.45-2.7-3.18-1.47-5.55,1.99-3.82,4.31-6.78,9.23-4.48Z"/>
  <path d="m255.01,34.1c-.6-2.37.15-5.09-2.55-6.91-.97-.65-1-3.01.65-3.75,1.44-.64,3.45-.9,3.8,1.51.37,2.51,1.82,3.28,4.09,3.15,1.12.69,2.52.81,3.53,1.69,2.08,1.82,1.62,5.71-.86,5.8-2.87.09-6.23,1.41-8.67-1.49Z"/>
  <path d="m303.99,236.02c0-2.79-.29-5.62.08-8.36.57-4.26,2.83-7.7,7.5-7.46,2.85.15,5.61-2.18,8.42-.17-1.38,2.75-4.1,2.57-6.5,2.8-4.1.38-5.93,2.8-6.07,6.57-.27,7.16-.8,14.42,5.73,19.69,1.08.87,2.08,2.3.85,3.94-4.26-2.79-9.57-4.78-8.58-11.53.14-.95-.49-1.89-1.41-2.46,0-1,0-2,0-3Z"/>
  <path d="m44,329.02c-1.43.15-2.85-.97-3.2-2.99-.35-2.04.69-3.55,2.83-3.96,2.27-.43,4.55-.84,6.85-1.04,2.13-.19,3.5.79,3.59,3.13.08,2.1-.57,3.54-2.93,3.81-2.13.24-4.24.62-7.13,1.06Z"/>
  <path d="m11.88,19.57c-1.5,1.94.18,3.79.2,5.7.01,1.45-.21,2.68-2.03,2.76-1.42.07-2.84-.04-2.84-1.88,0-2.03-.99-3.27-2.48-4.54-1.66-1.41-2.08-3.38-.63-5.32,1.17-1.57,2.67-2.55,4.69-1.78,2.25.87,3.39,2.53,3.1,5.06Z"/>
  <path d="m189.04,218.02c-8.15-1.09-15.01-4.77-20.91-10.4-1.31-1.25-2.72-2.4-4.08-3.59-3.83-4.26-7.56-8.57-6-14.99,1.46.04,1.83,1.05,2.21,2.25,4.15,13.23,14.07,20.33,26.49,24.67,1.2.42,2.2.62,2.29,2.08Z"/>
  <path d="m255.01,34.1c1.09.33,2.22,1.05,3.25.91,2.23-.3,5.28,1.55,6.55-1.5,1.39-3.32-2.43-3.65-3.8-5.41,3.41.08,6.27,1.38,5.65,5.16-.53,3.21-3.05,4.48-6.46,3.09-.84-.34-2.55-.98-2.42,1.13.21,3.5-1.45,5.47-4.83,5.33-2.13-.09-3.78-1.86-3.71-4.02.11-3.49,2.57-4.69,5.78-4.7Z"/>
  <path d="m461.34,310.04c2.86.01,8.48,4.41,8.56,6.23.11,2.44-.97,3.72-3.5,3.7-2.98-.02-8.66-4.48-8.29-6.71.34-2.04,1.88-2.95,3.23-3.22Z"/>
  <path d="m158.05,189.04c.23,5.71,4.1,9.96,6,14.99-3.05.38-3.82-2.14-4.95-4.05-5.32-8.98-5.38-18.73-3.28-28.46,1.46-6.76,4.51-13.09,7.23-19.47,2.12,1.66,1.74,3.47.73,5.69-2.38,5.25-4.96,10.47-5.73,16.3v14.99Z"/>
  <path d="m62.87,322.03c-.16,0,.17-.03.5,0,1.76.2,2.59,1.24,2.69,2.97.25,4.49-4.2,5.04-6.39,7.45-1.21,1.33-2.74-.06-3.73-1.25-1.64-1.98-.37-3.47,1.1-4.61,1.87-1.45,2.1-4.79,5.84-4.57Z"/>
  <path d="m359.97,87.08c-1.45,1.58-3.08,1.28-4.37.03-11.93-11.67-26.08-20.12-40.61-28.01,7.07,1.28,12.68,5.58,18.61,9.14,7.98,4.79,15.25,10.55,21.98,16.99,1.28,1.22,2.58,2.07,4.4,1.86Z"/>
  <path d="m275.96,17.38c.1,2.7-4.24,7.69-6.52,7.72-2.47.03-4.08-1.5-3.77-3.57.58-3.96,4.59-4.71,7.47-6.27,1.37-.74,2.9.22,2.83,2.13Z"/>
  <path d="m113.07,187.04c0,22.1.02,44.2-.04,66.3,0,1.9.76,4.02-.96,5.67v-71.97c.33-.47.67-.47,1,0Z"/>
  <path d="m386.01,22.48c-.1-1.96.21-3.71,2.25-3.26,3.62.8,4.73,4.12,5.57,7.13.64,2.29-.79,3.82-3.35,3.73-5.72-.21-2.89-5.32-4.46-7.6Z"/>
  <path d="m45.59,241.52c-.33,1.63-1.63,3.42-2.86,2.8-3.28-1.66-6.36,4.64-9.28,0-.69-1.1-.89-3.09.25-3.67,3.05-1.53,6.52-1.76,9.9-1.72,1.22.02,1.71,1.41,1.98,2.59Z"/>
  <path d="m480.13,100.14c1.45.47,5.12-1.39,4.6,2.56-.51,3.84-4.49,3.73-7.39,4.27-2.42.45-3.97-1.39-3.76-3.55.35-3.62,3.34-3.51,6.56-3.28Z"/>
  <path d="m190.04,387.96c.65-1.35,1.65-2.35,3-3,1.47.03,2.94-.1,4.31.69,1.72.99,2.77,2.41,2.45,4.4-.27,1.7-1.4,2.94-3.09,3.52-2.03.7-3.54-.2-4.64-1.78-.82-1.18-1.36-2.54-2.03-3.82Z"/>
  <path d="m71.97,309.39c-.05,1.78-4.94,6.7-6.44,6.45-1.95-.33-3.85-1.77-3.14-3.63,1.08-2.87,3.18-5.55,6.53-5.95,1.64-.19,2.78,1.5,3.06,3.13Z"/>
  <path d="m65.36,292.97c-4.02.09-5.3-2.17-5.6-5.01-.24-2.23.95-3.78,3.42-3.94,3.59-.23,4.47,2.27,4.84,5.04.31,2.32-.63,3.89-2.66,3.9Z"/>
  <path d="m446.93,236.02c.65-.03,1.34.07,1.93-.13,1.78-.61,3.14-.24,4.14,1.4.72,1.17.35,2.21-.43,3.1-1.31,1.52-2.82,1.21-4.35.29-.41-.25-.86-.44-1.3-.66-.33.05-.66.11-.95.26-2.1,1.1-4.04,1.32-5.56-.95-1.12-1.67-.67-3.28.65-4.4,2.25-1.92,4.22-.96,5.86,1.11Z"/>
  <path d="m467.11,110.14c-4.32-.16-6.09-1.5-6.15-4.56-.05-2.66,1.9-3.48,3.96-3.37,2.56.14,4.93,1.02,4.99,4.32.05,2.9-1.65,3.71-2.79,3.61Z"/>
  <path d="m35.77,508.8c-2.59-.29-4.42-1.75-4.47-4.39-.05-2.4,1.65-4.16,4.06-4.28,2.7-.14,4.47,1.67,4.54,4.28.07,2.41-1.66,3.85-4.13,4.39Z"/>
  <path d="m132.6,410.03c2.53.52,4.39,1.94,4.24,4.66-.13,2.41-1.88,4.11-4.28,4.05-2.61-.06-4.41-1.83-4.28-4.54.12-2.42,1.89-3.76,4.32-4.17Z"/>
  <path d="m67.02,405.29c-.43,2.55-1.77,4.32-4.19,4.44-2.7.13-4.48-1.67-4.54-4.28-.06-2.4,1.63-4.14,4.05-4.28,2.75-.16,4.08,1.77,4.68,4.12Z"/>
  <path d="m25,85.4c-.29,2.6-1.76,4.43-4.4,4.48-2.4.05-4.16-1.65-4.28-4.06-.14-2.7,1.67-4.48,4.28-4.54,2.41-.06,3.84,1.68,4.39,4.12Z"/>
  <path d="m129.74,501.8c-2.6-.29-4.43-1.76-4.48-4.39-.05-2.4,1.65-4.16,4.06-4.28,2.7-.14,4.47,1.67,4.54,4.28.06,2.41-1.68,3.85-4.12,4.39Z"/>
  <path d="m142.95,41.42c-.3,2.6-1.76,4.43-4.4,4.47-2.4.04-4.15-1.66-4.27-4.07-.13-2.7,1.68-4.47,4.29-4.53,2.41-.06,3.84,1.69,4.38,4.13Z"/>
  <path d="m75.85,94.18c2.48.69,4.34,2.13,3.99,4.88-.3,2.36-2.03,4.03-4.49,3.79-2.59-.25-4.34-2.03-4.01-4.76.29-2.38,2.04-3.69,4.51-3.91Z"/>
  <path d="m105.62,493c2.53.53,4.39,1.94,4.23,4.66-.13,2.41-1.89,4.11-4.29,4.05-2.61-.07-4.41-1.84-4.27-4.55.12-2.42,1.89-3.75,4.32-4.16Z"/>
  <path d="m168.04,499.91c-.27-.95-.69-1.89-.79-2.86-.24-2.27.92-3.79,2.94-4.67,2.03-.88,3.55.08,4.76,1.59,1.51,1.87,1.12,3.76-.4,5.38-.65.69-1.67,1.05-2.52,1.55-1.7,1.15-2.92.36-4-1Z"/>
  <path d="m125.96,487.24c-.29,2.6-1.76,4.43-4.4,4.48-2.4.05-4.16-1.65-4.28-4.06-.14-2.7,1.67-4.48,4.28-4.54,2.41-.06,3.84,1.68,4.39,4.12Z"/>
  <path d="m98.54,87.99c-2.53-.52-4.39-1.93-4.25-4.65.13-2.41,1.88-4.11,4.28-4.06,2.61.06,4.42,1.84,4.29,4.54-.12,2.42-1.88,3.76-4.32,4.17Z"/>
  <path d="m72.75,488.81c-2.6-.3-4.43-1.76-4.47-4.4-.04-2.4,1.66-4.15,4.07-4.27,2.7-.13,4.47,1.68,4.53,4.29.06,2.41-1.69,3.84-4.13,4.38Z"/>
  <path d="m211.57,478.01c2.53.53,4.39,1.94,4.23,4.66-.13,2.41-1.89,4.11-4.29,4.05-2.61-.07-4.41-1.84-4.27-4.55.12-2.42,1.89-3.75,4.32-4.16Z"/>
  <path d="m85.97,118.39c-.29,2.6-1.76,4.43-4.4,4.48-2.4.05-4.16-1.65-4.28-4.06-.14-2.7,1.67-4.48,4.28-4.54,2.41-.06,3.84,1.68,4.39,4.12Z"/>
  <path d="m90.75,417.83c-2.6-.29-4.43-1.76-4.48-4.39-.05-2.4,1.65-4.16,4.06-4.28,2.7-.14,4.47,1.67,4.54,4.28.06,2.41-1.68,3.85-4.12,4.39Z"/>
  <path d="m196.7,473.81c-2.6-.3-4.43-1.76-4.47-4.4-.04-2.4,1.66-4.15,4.07-4.27,2.7-.13,4.47,1.68,4.53,4.29.06,2.41-1.69,3.84-4.13,4.38Z"/>
  <path d="m120.96,463.25c-.29,2.6-1.76,4.43-4.39,4.48-2.4.05-4.16-1.65-4.28-4.06-.14-2.7,1.67-4.47,4.28-4.54,2.41-.06,3.85,1.68,4.39,4.12Z"/>
  <path d="m168.04,499.91c1.33.33,2.67.67,4,1,.27.95.69,1.89.79,2.86.24,2.27-.92,3.79-2.94,4.67-2.03.88-3.55-.08-4.76-1.59-1.51-1.87-1.12-3.76.4-5.38.65-.69,1.67-1.05,2.52-1.55Z"/>
  <path d="m34,72.33c-.23,2.47-1.54,4.23-3.92,4.51-2.73.32-4.51-1.43-4.75-4.02-.23-2.45,1.43-4.18,3.8-4.48,2.75-.34,4.18,1.51,4.87,3.99Z"/>
  <path d="m90.97,460.25c-.3,2.6-1.76,4.43-4.4,4.47-2.4.04-4.16-1.65-4.27-4.06-.13-2.7,1.67-4.47,4.29-4.54,2.41-.06,3.84,1.69,4.39,4.12Z"/>
  <path d="m65.76,13c-2.6-.29-4.43-1.76-4.48-4.4-.05-2.4,1.65-4.16,4.06-4.28,2.7-.14,4.48,1.67,4.54,4.28.06,2.41-1.68,3.84-4.12,4.39Z"/>
  <path d="m43.55,394.86c-2.52-.53-4.38-1.94-4.23-4.66.14-2.41,1.89-4.11,4.29-4.05,2.61.07,4.41,1.84,4.27,4.55-.12,2.42-1.89,3.75-4.33,4.15Z"/>
  <path d="m167.83,459.83c-2.71-.3-4.54-1.77-4.59-4.41-.05-2.4,1.65-4.16,4.06-4.28,2.7-.14,4.47,1.67,4.54,4.28.07,2.43-1.72,3.81-4.02,4.4Z"/>
  <path d="m66.62,71.01c-2.6-.54-4.46-1.96-4.31-4.68.14-2.41,1.89-4.11,4.29-4.05,2.61.07,4.4,1.84,4.27,4.55-.12,2.44-1.93,3.72-4.25,4.17Z"/>
  <path d="m110,65.54c-.54,2.61-1.95,4.47-4.67,4.32-2.41-.13-4.11-1.88-4.05-4.28.06-2.61,1.83-4.41,4.54-4.28,2.43.11,3.72,1.92,4.19,4.24Z"/>
  <path d="m48.01,451.39c-.41,2.43-1.75,4.2-4.17,4.32-2.7.13-4.48-1.67-4.54-4.28-.06-2.4,1.63-4.15,4.05-4.28,2.72-.14,4.14,1.71,4.66,4.24Z"/>
  <path d="m16.87,61.19c2.48.69,4.34,2.13,3.99,4.88-.3,2.36-2.03,4.03-4.49,3.79-2.59-.25-4.34-2.03-4.01-4.76.28-2.38,2.04-3.69,4.51-3.91Z"/>
  <path d="m138.6,440.02c2.53.52,4.39,1.94,4.24,4.66-.13,2.41-1.88,4.11-4.28,4.05-2.61-.06-4.42-1.84-4.28-4.54.12-2.42,1.89-3.75,4.32-4.17Z"/>
  <path d="m111.53,448.84c-2.52-.53-4.39-1.94-4.24-4.66.13-2.41,1.88-4.11,4.28-4.05,2.61.07,4.41,1.84,4.28,4.55-.12,2.42-1.89,3.75-4.32,4.16Z"/>
  <path d="m189.95,440.48c-.53,2.53-1.94,4.39-4.66,4.23-2.41-.14-4.11-1.89-4.05-4.29.07-2.61,1.84-4.41,4.55-4.27,2.42.12,3.75,1.89,4.16,4.32Z"/>
  <path d="m119.96,431.26c-.3,2.6-1.76,4.43-4.4,4.47-2.4.04-4.16-1.65-4.27-4.06-.13-2.7,1.67-4.47,4.29-4.54,2.41-.06,3.84,1.69,4.39,4.12Z"/>
  <path d="m219.26,423.05c2.47.22,4.23,1.53,4.51,3.91.33,2.73-1.43,4.51-4.02,4.76-2.46.24-4.19-1.42-4.48-3.79-.35-2.75,1.5-4.19,3.99-4.88Z"/>
  <path d="m200.36,418.05c2.6.3,4.43,1.76,4.47,4.4.04,2.4-1.65,4.16-4.06,4.27-2.7.13-4.47-1.67-4.54-4.29-.06-2.41,1.69-3.84,4.12-4.39Z"/>
  <path d="m79.97,50.42c-.29,2.6-1.76,4.43-4.39,4.48-2.4.05-4.16-1.65-4.28-4.06-.14-2.7,1.67-4.47,4.28-4.54,2.41-.06,3.85,1.68,4.39,4.12Z"/>
  <path d="m490.78,270c-2.85.05-4.34-1.35-4.21-3.9.13-2.55,1.31-4.29,4.4-4.14,2.65.13,4.11,1.07,3.9,3.85-.2,2.62-1.19,4.5-4.09,4.18Z"/>
  <path d="m105.07,276v3c-.76.32-1.51.64-2.27.95-2.57,1.07-4.76,1.03-6.17-1.87-.88-1.81-.4-3.6.98-4.39,2.23-1.26,4.73-1.42,6.44,1.25.26.4.67.7,1.01,1.05Z"/>
  <path d="m500.91,8.11c1.5-1.62,3.44-3.19,5.32-1.32,1.87,1.87.3,3.81-1.32,5.32-.36.54-.79,1.05-1.07,1.63-.91,1.91-2.42,2.46-4.41,2.08-1.26-.24-1.99-.96-2.23-2.23-.38-1.99.17-3.49,2.08-4.41.58-.28,1.08-.71,1.63-1.07Z"/>
  <path d="m471.26,131.58c-2.42-1.08-5.35-1.68-5.72-4.84-.22-1.85,1.28-3.41,3.05-3.03,2.53.53,5.32,1.53,5.72,4.68.24,1.9-1.24,2.87-3.05,3.19Z"/>
  <path d="m63.42,381.98c2.7-.02,3.73,1.31,3.65,3.74-.09,2.76-2,3.91-4.23,3.84-2.17-.08-3.6-1.92-3.55-4.09.05-2.55,1.63-3.86,4.13-3.49Z"/>
  <path d="m21.12,379.98c2.41-.11,3.87.71,3.98,3.32.12,2.75-1.6,4.12-3.84,4.25-2.5.15-3.97-1.82-3.95-4.17.02-2.2,1.34-3.7,3.81-3.4Z"/>
  <path d="m129.06,128.06c.77-.6,1.59-1.15,2.29-1.81,5.22-4.94,9.66-3.96,12.7,2.81-.84.41-1.59.09-2.34-.26-6.08-2.83-7.04-2.43-10.57,3.68-1.22,2.12-1.54,5.33-5.14,5.17-1.23-.48-1.35-1.34-.61-2.27,1.53-1.93,2.19-4.35,3.65-6.31v-1Z"/>
  <path d="m221.02,205.03c.16-.29.28-.62.49-.86,5.78-6.65,5.32-9.33-2.4-14.09-2.07-1.28-4.81-1.57-6.09-4.04,4.39,1.45,8.6,3.24,12.02,6.51,1.84,1.75,4.1,3.76,2.7,6.29-1.45,2.62-2.43,6.42-6.73,6.2Z"/>
  <path d="m135.53,16.58c-.33,2.11-1.57,3.77-3.74,3.88-2.45.12-4.13-1.6-4.1-3.99.02-2.17,1.73-3.78,3.88-3.77,2.14.01,3.53,1.59,3.96,3.88Z"/>
  <path d="m18.59,36.56c-.4,2.18-1.66,3.87-3.83,3.91-2.41.05-4.11-1.64-4.01-4.07.09-2.17,1.77-3.74,3.95-3.69,2.17.05,3.47,1.68,3.9,3.85Z"/>
  <path d="m13.57,54.74c-.54,2.23-1.9,3.87-4.07,3.72-2.32-.16-4.05-1.81-3.71-4.34.29-2.12,1.89-3.64,4.16-3.38,2.17.25,3.38,1.85,3.61,4Z"/>
  <path d="m179.5,24.46c-.25,2.15-1.47,3.79-3.64,3.98-2.51.22-4.16-1.54-4.21-3.87-.05-2.15,1.62-3.8,3.8-3.86,2.19-.06,3.53,1.51,4.05,3.75Z"/>
  <path d="m111.54,87.56c-2.24-.46-3.85-1.8-3.87-3.96-.02-2.16,1.58-3.86,3.76-3.9,2.4-.04,4.11,1.64,4.01,4.09-.09,2.18-1.77,3.41-3.89,3.77Z"/>
  <path d="m41.59,49.56c-.41,2.17-1.68,3.86-3.85,3.9-2.4.04-4.11-1.64-4.01-4.09.09-2.17,1.76-3.74,3.95-3.67,2.18.06,3.46,1.7,3.9,3.86Z"/>
  <path d="m34.54,107.58c2.18.38,3.86,1.64,3.93,3.81.07,2.42-1.62,4.12-4.04,4.05-2.17-.06-3.76-1.75-3.72-3.92.04-2.17,1.66-3.48,3.83-3.93Z"/>
  <path d="m444.07,336.72c-1.99-.65-3.79-1.98-3.92-4.25-.11-1.98,1.52-3.27,3.52-3.4,2.27-.14,3.93,1.17,4.06,3.37.12,2.13-1.31,3.61-3.66,4.27Z"/>
  <path d="m480.89,276.34c.06,2.67-1.25,3.7-3.68,3.65-2.47-.05-3.75-1.53-3.64-3.72.09-1.93,1.37-3.25,3.62-3.27,2.41-.01,3.76.95,3.69,3.33Z"/>
  <path d="m472.4,339.95c-2.48.12-3.88-1.39-3.84-3.53.03-2.15,1.5-3.54,3.96-3.44,2.2.08,3.33,1.07,3.39,3.31.06,2.43-1,3.72-3.51,3.66Z"/>
  <path d="m16.36,330.98c2.45-.09,3.74.97,3.74,3.49,0,2.16-.91,3.37-3.19,3.51-2.41.15-3.98-1.02-4.13-3.24-.15-2.18,1.19-3.66,3.59-3.75Z"/>
  <path d="m76.62,345.94c-2.5.18-3.91-1.35-3.91-3.48,0-2.13,1.43-3.57,3.92-3.49,2.18.07,3.37.99,3.44,3.26.07,2.41-.92,3.76-3.44,3.71Z"/>
  <path d="m418.48,324c2.54-.04,3.52,1.33,3.44,3.73-.07,2.27-1.27,3.18-3.45,3.25-2.48.07-3.9-1.36-3.9-3.5,0-2.13,1.42-3.65,3.91-3.48Z"/>
  <path d="m504.38,323.96c-2.48.12-3.88-1.39-3.84-3.53.03-2.15,1.5-3.54,3.96-3.44,2.2.08,3.33,1.07,3.39,3.31.06,2.43-1,3.72-3.51,3.66Z"/>
  <path d="m348.92,55.84c.15,2.93-.89,4.19-3.42,4.25-2.48.06-3.94-1.38-3.91-3.5.03-2.45,1.82-3.43,4.39-3.59,2.83-.18,2.61,1.68,2.93,2.83Z"/>
  <path d="m17.65,313.01c2.54-.04,3.52,1.33,3.44,3.73-.07,2.27-1.27,3.18-3.45,3.25-2.48.07-3.9-1.36-3.9-3.5,0-2.13,1.42-3.65,3.9-3.48Z"/>
  <path d="m469.92,17.1c1,1,2,2,3,3,.4,3.73-1.26,5.4-5,5-1.35-.65-2.35-1.65-3-3-.41-3.74,1.26-5.4,5-5Z"/>
  <path d="m413.92,9.75c0,2.58-1.47,3.41-3.82,3.35-2.26-.05-3.49-1.5-3.51-3.38-.03-2.16,1.31-3.61,3.79-3.6,2.48,0,3.65,1.17,3.55,3.63Z"/>
  <path d="m88.09,264.99c1.68-.08,2.98.98,2.97,3.5,0,2.16-.91,3.37-3.19,3.51-2.41.15-3.98-1.02-4.14-3.24-.16-2.2,1.17-3.68,4.35-3.76Z"/>
  <path d="m460.46,369.94c-2.26.22-3.77-1.12-3.88-3.31-.1-2.17,1.23-3.65,3.71-3.66,2.12,0,3.49.74,3.61,3.06.12,2.32-.65,3.87-3.44,3.9Z"/>
  <path d="m17.08,301.74c-.05,2.61-1.63,3.32-3.93,3.23-2.27-.09-3.46-1.63-3.42-3.48.04-2.14,1.43-3.57,3.91-3.51,2.53.06,3.56,1.33,3.44,3.75Z"/>
  <path d="m122.06,146.05c-1,2.33-2,4.66-3,7-1.04-.74-1.76-1.77-3.13-2.24-2.74-.93-4.74-2.74-3.19-5.94,1.59-3.27,4.18-3.22,7-1.49.42.26.88.45,1.32.67.87-.43,1.2.14,1.48.8.04.48-.12.88-.48,1.2Z"/>
  <path d="m440.43,374.98c2.54-.05,3.56,1.29,3.48,3.73-.07,2.29-1.29,3.23-3.48,3.24-2.53,0-3.56-1.3-3.48-3.73.07-2.29,1.29-3.26,3.48-3.23Z"/>
  <path d="m430.91,267.64c0,2.24-1.13,3.31-3.37,3.35-2.49.04-3.64-1.14-3.6-3.62.04-2.25,1.14-3.31,3.37-3.35,2.49-.04,3.68,1.14,3.59,3.62Z"/>
  <path d="m433.22,278.98c-2.62-.04-3.38-1.61-3.25-3.94.14-2.35,1.57-3.06,3.68-3.02,2.63.06,3.38,1.61,3.25,3.94-.13,2.35-1.57,3.09-3.68,3.01Z"/>
  <path d="m4.23,287c-1.8.09-3.11-.97-3.1-3.5,0-2.18.95-3.41,3.24-3.48,2.43-.08,3.74.95,3.74,3.48,0,2.19-.97,3.42-3.87,3.5Z"/>
  <path d="m7.23,322.98c-1.8.09-3.11-.97-3.1-3.5,0-2.18.95-3.41,3.24-3.48,2.43-.08,3.74.95,3.74,3.48,0,2.19-.97,3.42-3.87,3.5Z"/>
  <path d="m488.09,29.87c-2.06-.49-3.23-1.34-3.17-3.42.07-2.75,1.87-3.87,4.12-3.95,1.77-.07,2.89,1.17,2.89,3.24,0,2.85-2.08,3.38-3.84,4.13Z"/>
  <path d="m350.97,166.04c.63-2.99-1.64-5.25-2-8,1.25-.92,2.33-.34,2.94.69,3.26,5.41,6.05,10.99,4.62,17.64-1.03,1.27-1.84.75-2.56-.34,0-3.63-1.15-6.92-3-10Z"/>
  <path d="m434.93,257.01c-.45,2.37-1.17,4.88-4.19,4.21-2.43-.53-3.96-2.35-2.8-5.21,2.82-3.05,5.2-3.05,7,1Z"/>
  <path d="m82.08,389.95c.95.38,1.62,1.05,2,2,1.42,2.19,1.08,4.06-1.14,5.44-1.86,1.15-3.18.01-4.14-1.4-1.6-2.34.25-3.55,1.8-4.8.5-.41.99-.83,1.48-1.24Z"/>
  <path d="m124.06,89.08c4.17,6.05,8.47,12.03,12.44,18.21,1.21,1.89,3.49,3.18,3.56,5.78-6.86-6.98-12.52-14.75-15.99-23.99Z"/>
  <path d="m445.43,252.56c-.56,1.9-1.34,3.48-3.62,3.39-2.24-.09-3.25-1.66-3.26-3.54-.01-1.85,1.54-2.99,3.25-3.04,1.98-.06,3.25,1.22,3.62,3.19Z"/>
  <path d="m506.41,153.52c-.5,1.83-1.2,3.45-3.47,3.47-2.27.02-3.32-1.56-3.43-3.4-.12-1.84,1.44-3.05,3.13-3.18,1.98-.15,3.3,1.11,3.77,3.11Z"/>
  <path d="m503.38,168.67c-.47,2.07-1.98,3.1-3.89,3.2-2.06.11-2.99-1.69-2.97-3.3.02-2.06,1.68-3.33,3.68-3.16,1.69.14,2.99,1.31,3.18,3.25Z"/>
  <path d="m436.93,162.05c-.13.09-.29.17-.39.28-1.44,1.56-2.85,3.33-5.32,2.2-1.09-.5-1.75-1.73-1.68-2.81.16-2.61,2.19-3.33,4.4-3.67,1.7.81,3.89,1.25,3,4Z"/>
  <path d="m416.43,182.95c-2.01-.33-2.95-1.84-2.86-3.5.12-2.06,1.75-3.28,3.78-3.02,1.68.22,3.21,1.38,2.97,3.34-.25,2.1-2.03,2.81-3.89,3.18Z"/>
  <path d="m83.53,333.91c-1.84-.55-3.42-1.56-3.24-3.68.14-1.76,1.5-3.14,3.29-3.07,1.96.08,3.44,1.46,3.29,3.55-.13,1.78-1.53,2.79-3.33,3.19Z"/>
  <path d="m51.47,343.95c-1.9-.8-3.54-1.79-3.13-3.95.32-1.67,1.61-3.09,3.48-2.81,1.91.29,3.38,1.62,3.03,3.76-.29,1.74-1.71,2.66-3.38,3.01Z"/>
  <path d="m223.02,182.04c6.31,3.63,12.37,3.52,18.22-1.08,1.37-1.07,3.11-.97,4.77-.92-4.55,2.69-8.51,6.64-14.5,6.04-3.4-.34-6.35-1.23-8.49-4.04Z"/>
  <path d="m499.37,235.38c-.22,2.15-1.72,3.15-3.59,3.44-2.12.33-3.03-1.36-3.21-3-.24-2.19,1.42-3.37,3.35-3.43,1.75-.06,3.03,1.11,3.45,2.99Z"/>
  <path d="m350.65,44.19c2.5.64,4.38,2.07,4.08,4.75-.32,2.85-2.49,4.12-5.28,4.13-3.06,0-3.11-2.79-3.22-4.5-.16-2.56,1.81-4.04,4.41-4.37Z"/>
  <path d="m14.01,353.79c-.72,1.7-1.71,3.35-3.87,2.93-1.67-.32-3.09-1.61-2.81-3.48.29-1.91,1.63-3.4,3.76-3.02,1.69.3,2.79,1.61,2.92,3.57Z"/>
  <path d="m66.6,232.46c-.53,1.91-1.26,3.55-3.59,3.48-2.08-.06-2.78-1.34-2.93-3.26-.19-2.34,1.43-2.84,3.08-3.04,1.98-.24,2.96,1.08,3.43,2.82Z"/>
  <path d="m56.99,211.79c-.69,2.48-2.12,4.34-4.87,3.99-2.36-.3-4.03-2.03-3.79-4.49.25-2.59,2.03-4.34,4.76-4.02,2.38.28,3.69,2.04,3.91,4.51Z"/>
  <path d="m109,164.5c-.54,2.6-1.95,4.47-4.67,4.32-2.41-.13-4.11-1.88-4.06-4.28.06-2.61,1.83-4.41,4.54-4.29,2.43.11,3.72,1.92,4.19,4.24Z"/>
  <path d="m504.67,113.17c2.48.69,4.34,2.13,3.99,4.88-.3,2.36-2.03,4.03-4.49,3.79-2.59-.25-4.34-2.03-4.01-4.76.28-2.38,2.04-3.69,4.51-3.91Z"/>
  <path d="m456.46,117.15c2.53.52,4.39,1.93,4.25,4.65-.13,2.41-1.88,4.11-4.28,4.06-2.61-.06-4.42-1.83-4.29-4.54.12-2.42,1.88-3.76,4.32-4.17Z"/>
  <path d="m21.56,199.94c-2.52-.53-4.38-1.94-4.23-4.66.14-2.41,1.89-4.11,4.29-4.05,2.61.07,4.41,1.84,4.27,4.55-.12,2.42-1.89,3.75-4.33,4.15Z"/>
  <path d="m50.56,125.76c-.59,1.88-1.45,3.43-3.77,3.22-2.11-.19-2.61-1.62-2.7-3.48-.11-2.42,1.77-2.74,3.29-2.83,1.86-.11,2.98,1.18,3.17,3.1Z"/>
  <path d="m45.01,197.57c-.52,2.53-1.94,4.39-4.66,4.24-2.41-.13-4.11-1.88-4.05-4.28.06-2.61,1.84-4.42,4.54-4.28,2.42.12,3.75,1.89,4.17,4.32Z"/>
  <path d="m102.56,127.67c-.6,1.95-1.45,3.51-3.77,3.31-2.11-.18-2.63-1.59-2.72-3.46-.12-2.42,1.74-2.74,3.27-2.85,1.89-.14,2.94,1.2,3.21,3Z"/>
  <path d="m69.33,218.13c2.47.23,4.23,1.54,4.51,3.92.32,2.73-1.43,4.51-4.02,4.75-2.45.23-4.18-1.43-4.48-3.8-.34-2.75,1.51-4.18,3.99-4.87Z"/>
  <path d="m426.17,39.2c2.47.22,4.23,1.53,4.51,3.91.33,2.73-1.43,4.51-4.02,4.76-2.46.24-4.19-1.42-4.48-3.79-.35-2.75,1.5-4.19,3.99-4.88Z"/>
  <path d="m122.06,145.05c-.33-.33-.67-.67-1-1,.08-6.38,4.15-10.63,8-14.99-.11,3-2.97,4.97-3,8,.14,3.4.42,6.88-4,8Z"/>
  <path d="m36.99,156.37c-.29,2.6-1.76,4.43-4.39,4.48-2.4.05-4.16-1.65-4.28-4.06-.14-2.7,1.67-4.47,4.28-4.54,2.41-.06,3.85,1.68,4.39,4.12Z"/>
  <path d="m436.93,162.05c-.53-1.69-1.84-2.79-3-4,1.66,0,2.07-1.37,2.78-2.46,1.3-1.99,2.99-3.11,5.4-1.89,1.94.98,3.15,2.57,2.48,4.8-.68,2.25-2.31,3.68-4.81,3.31-1.04-.15-1.92-.19-2.85.24Z"/>
  <path d="m447.84,41.63c-.52,2.53-1.93,4.39-4.65,4.25-2.41-.13-4.11-1.88-4.06-4.28.06-2.61,1.84-4.42,4.54-4.29,2.42.12,3.76,1.88,4.17,4.32Z"/>
  <path d="m17.02,209.57c-.53,2.53-1.94,4.39-4.66,4.23-2.41-.14-4.11-1.89-4.05-4.29.07-2.61,1.84-4.41,4.55-4.27,2.42.12,3.75,1.89,4.16,4.32Z"/>
  <path d="m65.33,135.95c-2.48-.69-4.34-2.12-3.99-4.87.3-2.36,2.03-4.03,4.49-3.79,2.59.25,4.34,2.03,4.02,4.76-.28,2.38-2.04,3.69-4.51,3.91Z"/>
  <path d="m47.99,230.34c-.29,2.6-1.76,4.43-4.39,4.48-2.4.05-4.16-1.65-4.28-4.06-.14-2.7,1.67-4.47,4.28-4.54,2.41-.06,3.85,1.68,4.39,4.12Z"/>
  <path d="m348.97,202.03c-.33-.33-.67-.67-1-1,2.04-4.65,2.38-10.02,6-13.99.17.16.35.32.52.48,2.56,3.77-1.53,6.57-1.45,9.99-.78,2.03-.87,4.69-4.08,4.53Z"/>
  <path d="m424.85,134.59c-.52,2.53-1.93,4.39-4.65,4.25-2.41-.13-4.11-1.88-4.06-4.28.06-2.61,1.83-4.42,4.54-4.29,2.42.12,3.76,1.88,4.17,4.32Z"/>
  <path d="m496.45,133.99c-2.6-.54-4.47-1.95-4.32-4.67.13-2.41,1.88-4.11,4.28-4.06,2.61.06,4.41,1.83,4.29,4.54-.11,2.43-1.92,3.72-4.24,4.19Z"/>
  <path d="m208.03,232.02c2.5-6.93-2.01-10.09-7-12.99,3.55-.45,7.14.57,8.4,3.64,1.16,2.81,2.16,6.73-1.4,9.36Z"/>
  <path d="m467.81,188.34c-.22,2.41-1.53,4.17-3.91,4.45-2.73.32-4.56-1.44-4.74-4.02-.2-2.69,1.66-4.47,4.28-4.53,2.41-.06,3.84,1.69,4.38,4.1Z"/>
  <path d="m46.1,137.06c-1.75-4.79-.81-5.73,5-5,1.02,5.63.63,6.02-5,5Z"/>
  <path d="m101.03,258.31c.21,2.09-1,3.23-2.82,3.31-1.66.08-2.72-1.27-2.92-2.83-.25-1.87,1.06-2.62,2.74-2.74,1.63-.11,3.04.14,3,2.26Z"/>
  <path d="m427.4,224.69c-.41,1.66-1.43,2.87-3.06,2.73-1.79-.15-3.09-1.38-2.75-3.36.28-1.6,1.46-2.67,3.17-2.41,1.62.24,2.51,1.41,2.63,3.04Z"/>
  <path d="m100.41,139.51c-1.63-.35-2.79-1.37-2.76-3,.03-1.63,1.23-2.88,2.85-2.86,1.82.02,3.13,1.25,2.95,3.19-.15,1.63-1.37,2.53-3.04,2.67Z"/>
  <path d="m52.09,137.06c.49-.08.99-.11,1.46-.24,2.3-.63,3.68.57,3.91,2.57.21,1.85-1.2,3.31-3.06,3.03-2.28-.35-3.4-1.92-2.31-4.36-.28-.22-.38-.44-.28-.67.09-.22.19-.33.28-.33Z"/>
  <path d="m431.57,179.51c-1.66-.19-2.89-1.09-3.02-2.72-.15-1.93,1.14-3.16,2.99-3.16,1.63,0,2.81,1.27,2.83,2.89.01,1.63-1.14,2.65-2.79,2.99Z"/>
  <path d="m417.42,211.39c-.19,1.66-1.09,2.89-2.72,3.02-1.92.15-3.16-1.14-3.16-2.99,0-1.63,1.27-2.81,2.89-2.83,1.63-.01,2.65,1.14,2.99,2.79Z"/>
  <path d="m26.74,149.53c-1.66-.19-2.89-1.09-3.02-2.72-.15-1.93,1.14-3.16,2.99-3.16,1.63,0,2.81,1.27,2.83,2.89.01,1.63-1.14,2.65-2.79,2.99Z"/>
  <path d="m105.56,154.6c-.32,1.63-1.3,2.88-2.92,2.86-1.82-.02-3.13-1.25-2.95-3.19.15-1.62,1.37-2.73,3.04-2.62,1.65.11,2.56,1.32,2.83,2.95Z"/>
  <path d="m25.52,127.58c1.65.23,2.89,1.14,2.98,2.77.11,1.9-1.17,3.15-3.03,3.11-1.64-.03-2.79-1.3-2.78-2.92.02-1.63,1.2-2.62,2.83-2.96Z"/>
  <path d="m23.58,254.49c-1.63-.31-2.89-1.26-2.89-2.89,0-1.84,1.24-3.13,3.17-2.97,1.62.14,2.74,1.37,2.65,3.02-.09,1.65-1.3,2.57-2.93,2.84Z"/>
  <path d="m66.56,180.4c-.19,1.66-1.09,2.89-2.72,3.02-1.92.15-3.16-1.14-3.16-2.99,0-1.63,1.27-2.81,2.89-2.83,1.63-.01,2.65,1.14,2.99,2.79Z"/>
  <path d="m107.59,169.54c1.79.43,3.01,1.45,2.88,3.07-.14,1.78-1.36,3.1-3.34,2.77-1.59-.27-2.67-1.45-2.45-3.16.22-1.65,1.46-2.45,2.9-2.68Z"/>
  <path d="m41.64,162.56c1.63.32,2.88,1.3,2.86,2.92-.02,1.82-1.25,3.13-3.19,2.95-1.62-.15-2.73-1.37-2.62-3.04.11-1.65,1.32-2.56,2.95-2.83Z"/>
  <path d="m153.05,395.95c.76.52,2.13.98.75,2.07-1.33,1.06-2.24,2.1-1.18,3.74.89,1.36,2.19,1.21,3.55.68,1.4-.55,1.71.44,1.88,1.51-2.54.67-5.13,1.74-7.06-1.24-2.02-3.11.24-4.85,2.06-6.75Z"/>
  <path d="m500.91,8.11c-.41.52-.72,1.18-1.24,1.53-2.09,1.38-2.63,3.4-.9,4.95,1.43,1.28,3.43.73,4.61-1.24.32-.53,1-.83,1.52-1.24-1.73,4.78-4.53,6.19-7.32,3.68-3.01-2.71-1.64-5.88,3.33-7.67Z"/>
  <path d="m446.93,236.02c-.89-.42-1.75-1-2.68-1.25-2.32-.62-3.63.81-3.71,2.77-.07,1.76,1.28,2.96,3.28,2.91,1.05-.02,1.89-1.61,3.11-.43-2.4,2.51-4.84,2.63-6.98-.2-1.73-2.29-.93-4.43,1.3-5.83,2.57-1.62,4.62-.96,5.68,2.04Z"/>
  <path d="m178.04,415.94c2.12-.3,5.17,1.04,5.74-2.25.38-2.25-1.52-3.45-3.74-3.75,2.49-2.06,3.89-.2,5.19,1.55,1.34,1.8.66,3.59-.73,4.92-2.21,2.12-4.46,1.74-6.46-.47Z"/>
  <path d="m213.96,508.84c-1.84.09-2.82-.44-2.9-2.18-.08-1.85.65-2.77,2.57-2.73,1.67.03,2.37.86,2.36,2.46-.02,1.56-.57,2.57-2.03,2.45Z"/>
  <path d="m224.97,36.78c.04,1.73-.96,2.28-2.52,2.28-1.65,0-2.38-.79-2.4-2.42-.03-1.95.98-2.6,2.79-2.51,1.76.09,2.2,1.14,2.13,2.65Z"/>
  <path d="m53.85,89.02c-1.9.06-2.7-.69-2.73-2.35-.04-1.93.91-2.64,2.75-2.56,1.74.08,2.21,1.08,2.19,2.61-.02,1.68-.85,2.41-2.21,2.29Z"/>
  <path d="m409.89,79.33c.07,1.49-.3,2.59-2.08,2.7-1.79.11-2.86-.47-2.84-2.45.01-1.59.67-2.46,2.35-2.47,1.54,0,2.58.48,2.57,2.22Z"/>
  <path d="m100.02,23.83c.02,1.74-1.01,2.24-2.56,2.24-2.05,0-2.45-1.24-2.33-2.95.13-1.82,1.36-2.01,2.8-1.96,1.78.06,2.16,1.19,2.09,2.68Z"/>
  <path d="m153.01,487.49c.06,1.62-.75,2.39-2.38,2.39-1.56,0-2.49-.56-2.54-2.28-.06-1.88.75-2.72,2.65-2.66,1.71.05,2.33.95,2.27,2.55Z"/>
  <path d="m84.77,74.03c-1.59.07-2.58-.45-2.65-2.19-.08-1.85.65-2.77,2.57-2.73,1.67.03,2.36.86,2.36,2.46,0,1.58-.63,2.52-2.28,2.46Z"/>
  <path d="m389.53,46.14c1.62-.06,2.39.75,2.39,2.38,0,1.56-.56,2.49-2.28,2.54-1.88.06-2.72-.75-2.66-2.65.05-1.71.95-2.33,2.55-2.27Z"/>
  <path d="m19.75,53.04c-1.54.07-2.53-.46-2.6-2.19-.08-1.85.65-2.77,2.57-2.73,1.67.03,2.36.86,2.36,2.46,0,1.58-.63,2.52-2.33,2.46Z"/>
  <path d="m163.99,481.02c.08,1.86-.5,2.8-2.22,2.87-1.87.07-2.73-.71-2.69-2.62.04-1.7.91-2.33,2.5-2.32,1.58.02,2.54.64,2.42,2.07Z"/>
  <path d="m175.99,45.49c.07,1.56-.51,2.51-2.23,2.57-1.87.07-2.73-.71-2.69-2.62.04-1.7.91-2.32,2.5-2.32,1.6,0,2.49.7,2.43,2.37Z"/>
  <path d="m342.39,25.05c-1.84.04-2.39-.96-2.39-2.51,0-1.65.79-2.38,2.42-2.4,1.95-.03,2.61.98,2.51,2.79-.09,1.75-1.13,2.22-2.54,2.13Z"/>
  <path d="m92.81,473.97c1.74-.02,2.24,1.01,2.24,2.56,0,2.05-1.24,2.45-2.95,2.33-1.82-.13-2.01-1.36-1.96-2.8.06-1.78,1.19-2.16,2.68-2.09Z"/>
  <path d="m146.99,415.04c.08,1.86-.5,2.8-2.22,2.87-1.87.07-2.73-.71-2.69-2.62.04-1.7.91-2.33,2.5-2.32,1.58.02,2.54.64,2.42,2.07Z"/>
  <path d="m464.88,53.63c.05,1.61-.7,2.4-2.36,2.43-1.93.04-2.64-.91-2.56-2.75.08-1.74,1.08-2.2,2.61-2.19,1.7,0,2.36.9,2.3,2.5Z"/>
  <path d="m507.85,21.83c.02,1.74-1.01,2.24-2.56,2.24-2.05,0-2.45-1.24-2.33-2.95.13-1.82,1.36-2.01,2.8-1.96,1.78.06,2.16,1.19,2.09,2.68Z"/>
  <path d="m142.01,465.46c.05,1.61-.7,2.4-2.36,2.43-1.93.04-2.64-.91-2.56-2.75.08-1.74,1.08-2.2,2.61-2.19,1.7,0,2.36.9,2.3,2.5Z"/>
  <path d="m69.04,463.3c.07,1.55-.47,2.52-2.2,2.59-1.85.07-2.76-.67-2.72-2.59.03-1.68.88-2.35,2.47-2.35,1.59,0,2.51.65,2.45,2.34Z"/>
  <path d="m29.05,43.78c.04,1.73-.96,2.28-2.52,2.28-1.65,0-2.38-.79-2.4-2.42-.03-1.95.98-2.6,2.79-2.51,1.76.09,2.2,1.14,2.13,2.65Z"/>
  <path d="m423.88,121.16c.08,1.86-.5,2.8-2.22,2.87-1.87.07-2.73-.71-2.69-2.62.04-1.7.91-2.33,2.5-2.32,1.58.02,2.54.64,2.42,2.07Z"/>
  <path d="m482.87,4.71c.06,1.63-.77,2.36-2.4,2.37-1.57,0-2.47-.58-2.52-2.29-.05-1.89.78-2.7,2.66-2.64,1.71.05,2.32.97,2.26,2.57Z"/>
  <path d="m278.94,29.65c.05,1.85-.93,2.41-2.5,2.42-1.63,0-2.39-.76-2.42-2.4-.03-1.94.95-2.62,2.77-2.53,1.74.09,2.25,1.09,2.14,2.51Z"/>
  <path d="m28.06,426.54c.06,1.63-.77,2.36-2.4,2.37-1.57,0-2.47-.58-2.52-2.29-.05-1.89.78-2.7,2.66-2.64,1.71.05,2.32.97,2.26,2.57Z"/>
  <path d="m84.02,453.27c.07,1.88-.77,2.62-2.39,2.62-1.57,0-2.47-.58-2.52-2.29-.05-1.89.78-2.71,2.66-2.64,1.69.06,2.36.93,2.25,2.31Z"/>
  <path d="m169.37,10.05c-1.73.05-2.3-.94-2.3-2.5,0-1.63.76-2.39,2.4-2.42,1.94-.03,2.62.95,2.53,2.77-.09,1.75-1.11,2.22-2.63,2.14Z"/>
  <path d="m96.67,425.99c1.63-.06,2.36.77,2.37,2.4,0,1.57-.58,2.47-2.29,2.52-1.89.05-2.7-.78-2.64-2.66.05-1.71.97-2.32,2.57-2.26Z"/>
  <path d="m138.62,430.99c1.67-.06,2.4.77,2.41,2.4,0,1.57-.58,2.47-2.29,2.52-1.89.05-2.7-.78-2.64-2.66.05-1.71.97-2.32,2.53-2.26Z"/>
  <path d="m383.69,12.16c1.74-.02,2.24,1.01,2.24,2.56,0,2.05-1.24,2.45-2.95,2.33-1.82-.13-2.01-1.36-1.96-2.8.06-1.78,1.19-2.16,2.68-2.09Z"/>
  <path d="m375.96,77.08c-3.71,4.49-7.73,8.48-13.99,9,4.66-3,9.33-6,13.99-9Z"/>
  <path d="m199.03,58.09c-3.96,3.02-8.7,4.6-12.99,7,3.21-4.42,8.08-5.74,12.99-7Z"/>
  <path d="m225.02,210.03c-2.14,4.15-1.84,9.24-5,12.99.64-4.73,1.15-9.5,5-12.99Z"/>
  <path d="m190.04,208.03c5.65.56,11.44-1.18,16.99,1-5.65-.56-11.44,1.18-16.99-1Z"/>
  <path d="m333.98,16.1c3.56,1.87,6.43.6,9-2-2.12,5.89-4.42,6.4-9,2Z"/>
  <path d="m334.98,399.95c2.3,1.69,2.6,5.4,6,6-4.3,1.11-5.63-.22-6-6Z"/>
  <path d="m207.03,209.03c3.31.74,5.79-2.27,9-2-1.5,1.16-2.88,2.55-4.53,3.41-1.7.88-3.76,1.52-4.46-1.41Z"/>
  <path d="m263.01,47.09h-14.99c4.87-2.2,10.01-.43,14.99-1,.33.22.44.44.33.67-.11.22-.22.33-.33.33Z"/>
  <path d="m293.99,241.01h1v13.99c-2.11-4.54-.5-9.34-1-13.99Z"/>
  <path d="m249.01,179.04c4.66-1.61,9.33-1.61,13.99,0h-13.99Z"/>
  <path d="m119.07,78.08c2.18,2.62,4.4,5.23,4,9-2.1-2.66-3.79-5.5-4-9Z"/>
  <path d="m52.09,137.06v1c-2.01-.24-4.37,1.55-6-1,3.98.65,5.65-1.02,5-5,2.09,1.32,1.29,3.21,1,5Z"/>
  <path d="m113.07,187.04h-1c-.49-3.09.77-5.99,1-9,3.11,3-.77,6,0,9Z"/>
  <path d="m353.97,176.04c.67.33,1.33.67,2,1,.1.2.21.4.31.59,0,2.42-.35,4.84.16,7.25.02.46-.05.9-.21,1.33-.59.72-1.2,1.41-2.26.82v-11Z"/>
  <path d="m397.95,164.05c-2.48-2.6.9-6.49-2-9,5.49,1.93,1.14,6.04,2,9Z"/>
  <path d="m288.99,50.09c-3.39-.36-7.16,1.14-10-2,3.39.35,6.83.51,10,2Z"/>
  <path d="m263.01,47.09v-1c3.16-.07,6.23.3,9,2-3.05.15-6.07,0-9-1Z"/>
  <path d="m434.93,257.01c-1.97-2.86-4.34-2.94-7-1,.37-2.29,2.06-2.99,3.98-2.77,2.01.23,3.29,1.49,3.02,3.77Z"/>
  <path d="m508.9,171.04c-1.73,2.33-1.73,4.66,0,7-3.98-2.88-3.98-4.12,0-7Z"/>
  <path d="m467.92,25.1c3-.34,4.66-2,5-5,1.07,4.42-.57,6.07-5,5Z"/>
  <path d="m469.92,17.1c-3,.34-4.66,2-5,5-1.07-4.42.57-6.07,5-5Z"/>
  <path class="cls-3" d="m264.08,52.96c33.8,3.03,63.89,14.56,88.26,38.92,4.39,4.39,8.73,1.6,12.71.03,7.87-3.1,14.06-8.75,19.72-14.95.54-.59,1.07-1.19,2.35-2.63-1.69,7.74-5.04,13.52-8.62,19.11-19.27,30.15-45.56,53.13-75.03,72.79-6.78,4.52-13.85,8.56-21.15,12.21-2,1-3.35.91-5.32-.28-13.37-8.03-26.96-9.03-40.56-.49-2.14,1.34-4.09,1.92-6.47.61-40.35-22.07-75.04-50.34-98.98-90.36-2.18-3.64-3.88-7.56-5.83-11.41,2.48-1.42,3.22,1.01,4.29,2.13,5.7,5.96,12.13,10.86,19.76,14.11,4.86,2.07,8.76,1.57,12.94-2.47,19.43-18.78,42.67-30.3,69.25-35.3,6.5-1.22,12.96-1.95,19.54-2.03,4.38-.57,8.76-.57,13.14,0Z"/>
  <path class="cls-9" d="m264.08,52.96c-4.38,0-8.76,0-13.14,0,4.38-1.65,8.76-1.17,13.14,0Z"/>
  <path class="cls-3" d="m288.78,256.17c.61,2.7,2.62,4.08,4.86,5.33,5.22,2.93,10.38,5.95,16.26,9.32-33.5,19.63-42.79,53.76-53.75,87.97-2.86-8.54-5.57-16.27-8.03-24.07-5.44-17.28-12.54-33.67-24.85-47.32-5.82-6.46-12.42-11.96-20.83-16.37,5.67-3.27,10.95-6.43,16.35-9.37,2.46-1.34,4.35-3.01,5.34-5.64.74-6.35.54-12.7.12-19.05,1.09-16.04,6.61-29.87,20.21-39.43,7.44-5.23,17.11-4.87,24.53.52,11.11,8.06,16.49,19.3,18.04,32.66.24,2.09.73,4.16,1.1,6.23.98,6.38-.23,12.84.66,19.23Z"/>
  <path class="cls-6" d="m224.24,236.97c1.22,6.36,1.33,12.71-.12,19.05.04-6.35.08-12.7.12-19.05Z"/>
  <path class="cls-9" d="m288.78,256.17c-1.6-6.36-.48-12.82-.66-19.23,1.82,6.35.69,12.81.66,19.23Z"/>
  <path d="m369.96,127.06v-1c7.97-3.3,9.72-2.61,13.78,5.55,6.31,12.67,11.77,25.76,13.63,39.81,1.07,8.06,2.8,16.07,2.67,24.35-.3,18.64.21,37.29-.18,55.92-.36,16.73,2.23,33.06,4.85,49.48,3.17,19.9,8.67,39.06,16.07,57.74,2.7,6.8,5.88,13.37,9.05,19.95,1.29,2.67,3.38,5.52-.32,8.36-3.34,2.57-5.76,1.77-8.76-.7-11.25-9.24-22.74-18.18-34.04-27.36-4.8-3.9-4.78-3.98-7.9,1.04-8.14,13.08-16.34,26.13-24.56,39.16-.88,1.39-2.07,2.57-3.08,3.88-2.82,3.64-5.88,3.24-8.93.42-5.6-5.17-11.15-10.39-16.67-15.64-2.76-2.63-5.78-5.03-8.45-7.68-3.6-3.57-5.12-1.76-7.03,1.35-5.81,9.46-11.89,18.78-17.48,28.37-2.65,4.55-6.17,8.66-7.63,13.88-6.27,7.35-10.27,16.16-15.58,24.13-2.66,4-5.22,8.09-8.14,11.9-3.36,4.38-8.06,3.87-11.35-1.3-6.94-10.91-13.73-21.93-20.51-32.94-8.95-14.55-17.78-29.17-26.77-43.69-3.17-5.12-4.81-5.24-9.18-.98-7.13,6.97-14.07,14.11-21.6,20.68-6.08,5.3-8.91,5.31-13.26-1.64-8.43-13.48-16.67-27.08-24.89-40.7-2.39-3.96-3.68-4.29-7.25-1.35-4.09,3.36-8.26,6.62-12.4,9.92-1.31-.61-2.26-1.6-2.96-2.84-.45-2.8,2.11-3.52,3.59-4.74,4.5-3.7,9.14-7.23,13.59-10.98,3.13-2.64,5-2.17,7.08,1.2,8.76,14.15,17.47,28.34,26.23,42.5,4.23,6.83,3.97,6.65,9.77,1.43,7.19-6.46,14.1-13.18,20.93-20,1.44-1.44,3.05-2.59,5.18-2.76,1.76-.12,3.51-.2,5.18.51,6.99,9.08,13.1,18.77,19.01,28.57,10.4,17.23,21.19,34.22,31.68,51.4,2.9,4.75,2.99,4.79,5.82.24,12.9-20.77,25.74-41.58,38.48-62.45,1.73-2.83,3.26-5.82,5.9-7.98,2.15-1.57,3.78-3.62,5.33-5.76,3.06-4.23,5.46-4.57,9.24-1.18,1.24,1.11,2.43,2.2,4.01,2.76,7.79,5.45,14.13,12.58,21.39,18.65,2.84,2.37,4.17,2.08,6.07-.98,9.12-14.7,18-29.55,27.28-44.15.96-1.51,1.53-3.41,3.63-3.86,4.38.8,7.04,4.26,10.21,6.83,10.72,8.68,21.53,17.26,32.69,26.3-9.49-19.11-16.96-38.48-21.63-58.82-3.97-17.34-7.39-34.79-8.08-52.63-.15-3.96-1.67-7.87-.54-11.89.88-4.27.26-8.58.41-12.86-.08-18.4.2-36.8-.16-55.18-.13-.55-.15-1.12-.08-1.68,4.86-5.15,1.72-11.06,1.03-16.43-1.83-14.11-7.34-27.1-13.66-39.75-1.15-2.29-2.83-3.52-5.56-3.22-1.79.2-3.68.32-5.14-1.15Z"/>
  <path class="cls-3" d="m194.91,202.11c-14.48-1.97-25.8-14.56-19.04-29.64.97-2.17,1.62-2.37,3.45-.94,12.85,10.02,26.74,18.43,41.44,26-4.17,3.44-9.28,3.47-13.7,5.28-4.01-.9-8.15.38-12.15-.7Z"/>
  <path class="cls-6" d="m194.91,202.11c4.05.19,8.17-.74,12.15.7-4.07.17-8.19,1.03-12.15-.7Z"/>
  <path class="cls-3" d="m292.05,197.44c15.23-7.75,29.57-16.71,43-27.14,7.47,14.25,1.04,26.54-12.8,30.81-8.91,2.75-17.61,2.67-26.32-.92-1.59-.65-2.77-1.37-3.88-2.75Z"/>
  <path d="m343.97,176.04c1.79.43,4.59-1.23,4.94,2.25.31,3.13-2.02,2.7-3.94,2.75.11-1.75-.05-3.46-1-5Z"/>
  <path class="cls-1" d="m369.96,127.06c8.03-2.05,11.91,2.02,14.65,9.08,5.03,12.95,10.77,25.59,11.54,39.84.22,4.09,3.6,8.23-2.06,11.06-2.26-1.27-2.21-3.54-2.41-5.68-1.51-16.11-6.5-31.23-13.05-45.9-2.34-5.23-3.59-5.34-6.93-.88-4.29,5.74-8.91,11.23-13.71,16.52-2.54,2.79-2.81,5.18-1.33,8.5,3.92,8.75,6.01,17.71,4.8,27.57-1.77,14.5-9.47,24.58-21.56,31.71-7.71,4.55-16.3,6.73-25.21,7.35-3.25.23-3.56,1.41-3.96,4.57-1.41,11.4,4.31,17.09,13.94,21.46,8.6,3.9,16.46,9.41,24.71,14.11,6.34,3.61,6.35,5.74.01,9.52-6.86,4.09-13.77,8.2-20.96,11.61-15.11,7.17-24.63,19.24-32.17,33.59-12.32,23.44-20.45,48.41-27.61,73.75-3.08,10.89-6.58,21.65-9.54,32.58-.45,1.65-.66,4.25-2.71,4.34-2.4.11-2.82-2.5-3.35-4.37-4.17-14.74-8.38-29.48-12.94-44.09-6.84-21.91-13.84-43.79-24.77-64.17-7.8-14.55-18.45-25.85-33.57-32.95-7.06-3.32-13.81-7.35-20.48-11.45-4.62-2.84-4.61-4.56.17-7.29,9.83-5.61,19.33-11.86,29.49-16.82,6.92-3.38,9.6-8.39,9.79-15.69.19-7.08.47-7.32-6.44-8.37-13.34-2.03-24.72-7.58-33.78-17.71-5.73-6.41-9.19-13.8-9.87-22.42,0-3.21-.02-6.41,0-9.61.23-6.29,2.31-12.05,5.32-17.49,1.81-3.27,1.3-5.8-1.36-8.43-5.32-5.27-9.91-11.2-14.39-17.19-2.33-3.11-3.57-3.13-5.4.45-8.11,15.87-13.69,32.43-14.66,50.36-.05,1-.22,1.98-.44,2.97-.71,20.25-.1,40.48-.3,60.72-.03,2.65,0,5.31,0,7.96-1.2,32.9-6.88,64.96-18.07,95.99-.64,1.77-1.35,3.43-3.48,3.82-2.06-1.13-2.49-2.41-1.55-4.85,6.3-16.24,10.56-33.09,13.33-50.22,1.1-6.79,1.44-13.99,2.84-20.56,1.95-9.17-.52-18.4,2.19-27.36.75-2.48-.62-5.52-.63-8.31-.07-17.48-.04-34.96-.04-52.44,0-.67-.13-1.36.02-1.99,2.99-12.83,2.22-26.46,8.18-38.67.89-1.83,1.53-3.74-.2-5.51v-1c3.04-1.81,2.29-5.52,4-8,2.57-.26,2.75-2.63,3.6-4.27,4.67-9.02,6.09-9.42,14.4-3.73,1.9,2.74,3.85,5.44,6,8,3.88,5.39,8.68,9.98,12.99,14.99.27,6.59-3.64,11.92-5.57,17.82-3.72,11.42-.87,27.83,6.57,34.16,1.98,5.17,6.41,7.84,10.85,10.38,7.23,4.14,15.01,6.4,23.41,6.66,6.3.19,8.1,2.88,7.95,9.3-.07,3.06.17,6.1-.09,9.23-.5,5.9-3.2,9.75-8.3,12.54-9.14,5-18.12,10.3-27.17,15.49-1.59.91-3.63,1.77-3.44,3.85.18,1.97,2.35,2.56,3.91,3.42,8.27,4.57,16.78,8.75,24.75,13.77,8.85,5.58,15.19,13.81,20.64,22.61,10.97,17.74,18.16,37.16,24.39,56.92,4.37,13.86,8.11,27.91,12.24,41.85.55,1.85.78,3.96,2.7,5.61,3.31-3.93,3.69-9.05,5.31-13.52,3.03-8.4,5.21-17.1,7.69-25.68.22-.77.07-1.65.09-2.49,5.44-19.56,13.09-38.24,22.2-56.37,8.68-17.3,21.96-29.73,39.42-37.86,3.91-1.82,7.44-4.34,11.32-6.27,2.64-1.31,2.96-2.86,0-4.55-4.73-2.7-9.13-5.97-14.02-8.43-3.73-2.61-8.12-4.02-11.94-6.47l-2-1c-.15-2.67-2.44-3.81-3.98-5.44-3.84-4.04-5.82-17.12-3.08-21.89,1.49-2.59,3.02-4.92,6.95-4.1,1.85.38,4.06-.98,6.11-1.55,9.92-2.52,19.33-6,26.41-13.91,1.09-1.22,2.61-2.16,2.58-4.08,2.02-1.06,2.65-2.94,3-5,3.03-3.05,2.82-7.27,4-11,.54-3,.56-6,0-9,.22-5.93-1.58-11.33-4.26-16.51-.6-1.16-1.09-2.47-2.74-2.48.07-2.37-.39-4.82,1-7,2.02-1.97,4.02-3.98,6-6v-1c2.14-2.21,4.64-4.12,6-7,2.67-3.33,5.33-6.66,8-10Z"/>
  <path d="m327.98,260.01c6.36,1.38,10.64,6.44,16.21,9.28,3.5,1.78.61,3.59-1.12,4.6-5.87,3.43-11.69,6.99-17.81,9.91-14.87,7.09-25.12,18.69-32.58,32.95-9.09,17.37-16.7,35.36-21.89,54.32-.29,1.05-1.18,1.94-1.79,2.9h-1c7.03-23.19,15.29-45.85,28.27-66.51,7.46-11.87,18.06-20.12,30.19-26.68,4.67-2.52,9.32-5.07,14.03-7.53,2.51-1.31,2.95-2.32.15-3.98-4.97-2.94-9.78-6.16-14.65-9.26.67-.64,1.33-.56,2,0Z"/>
  <path d="m327.98,260.01h-2c-3.76-1.28-7.66-2.35-10-6,4.59.81,8.68,2.63,12,6Z"/>
  <path class="cls-4" d="m97.93,355.97c3.28-5.05,4.11-11.02,6.16-16.54,5.6-15.07,8.24-30.9,10.77-46.66,1.89-11.78,2.28-23.79,3.33-35.71.88-9.6.27-19.22.36-28.82.12-12.28.04-24.57.02-36.85.72-2.72,2.06-2.16,3.27-.46,1.41,1.98,1.51,4.37,1.51,6.71.03,17.64.56,35.31-.25,52.91-.34,7.49-.44,15.15-2.16,22.61-1.14,4.96-.56,10.13-1.22,15.24-2.6,20.28-7.32,39.95-13.96,59.28-2.52,7.33-5.93,14.37-8.04,22.95,7.02-3.99,12.1-9,17.4-13.63,3.76-3.29,7.52-6.53,11.54-9.5,4.65-3.43,8.41-3.16,11.26,1.75,8.02,13.81,17.3,26.83,25.11,40.76,3.1,5.54,3.88,5.65,8.04,1.06,2.02-2.23,4.25-4.37,6.67-5.97,6.43-4.26,10.18-11.38,16.9-15.23,1.49-.85,2.97-2.55,4.73-.37.3,2.16-1.18,2.8-2.82,3.29-8.56,6.58-15.53,14.89-23.64,21.96-2.48,2.16-4.83,4.45-7.48,6.91-10.4-16.9-20.66-33.41-30.72-50.04-1.84-3.05-2.98-3.97-6.04-1.18-5.64,5.14-11.7,9.81-17.59,14.68-8.02,6.29-16.03,12.57-24.98,19.58,4-10.41,9.78-18.82,11.8-28.73Z"/>
  <path d="m163.05,152.05c-5.18-4.26-9.93-8.9-12.99-14.99,4.82,4.57,9.58,9.2,12.99,14.99Z"/>
  <path d="m150.05,137.06c-3.03-1.89-4.91-4.65-6-8,2.82,2.05,4.71,4.8,6,8Z"/>
  <path d="m361.96,137.06c-.14,3.93-2.6,5.87-6,7,.74-3.42,3.58-5.02,6-7Z"/>
  <path d="m355.97,145.05c-.84,3.16-2.84,5.16-6,6,.84-3.16,2.84-5.16,6-6Z"/>
  <path d="m116.8,144.11c1.74-.02,2.24,1.01,2.24,2.56,0,2.05-1.24,2.45-2.95,2.33-1.82-.13-2.01-1.36-1.96-2.8.06-1.78,1.19-2.16,2.68-2.09Z"/>
  <path d="m352.91,48.76c.05,1.73-.94,2.3-2.5,2.3-1.63,0-2.39-.76-2.42-2.4-.03-1.94.95-2.62,2.77-2.53,1.75.09,2.22,1.11,2.14,2.63Z"/>
  <path d="m55.04,211.33c.07,1.9-.74,2.66-2.37,2.67-1.56,0-2.49-.56-2.54-2.27-.06-1.88.75-2.73,2.65-2.66,1.68.06,2.38.9,2.27,2.27Z"/>
  <path d="m107.03,164.58c.05,1.61-.7,2.4-2.36,2.43-1.93.04-2.64-.91-2.56-2.75.08-1.74,1.08-2.2,2.61-2.19,1.7,0,2.36.9,2.3,2.5Z"/>
  <path d="m504.24,120.01c-1.73.05-2.3-.94-2.3-2.5,0-1.63.76-2.39,2.4-2.42,1.94-.03,2.62.95,2.53,2.77-.09,1.75-1.11,2.22-2.63,2.14Z"/>
  <path d="m458.87,121.31c.07,1.49-.3,2.59-2.08,2.7-1.79.11-2.86-.47-2.84-2.45.01-1.59.67-2.46,2.35-2.47,1.54,0,2.58.48,2.57,2.22Z"/>
  <path d="m24.05,195.33c.07,1.9-.74,2.66-2.37,2.67-1.56,0-2.49-.56-2.54-2.28-.06-1.88.75-2.73,2.65-2.66,1.68.06,2.38.9,2.27,2.27Z"/>
  <path d="m40.41,199.98c-1.73.04-2.28-.96-2.28-2.52,0-1.65.79-2.38,2.42-2.4,1.95-.03,2.6.98,2.51,2.79-.09,1.76-1.14,2.2-2.65,2.13Z"/>
  <path d="m72.03,222.32c.07,1.9-.74,2.66-2.37,2.67-1.56,0-2.49-.56-2.54-2.28-.06-1.88.75-2.73,2.65-2.66,1.68.06,2.38.9,2.27,2.27Z"/>
  <path d="m426.52,41.14c1.62-.06,2.39.75,2.39,2.38,0,1.56-.56,2.49-2.27,2.54-1.88.06-2.72-.75-2.66-2.65.05-1.71.95-2.33,2.55-2.27Z"/>
  <path d="m35.05,156.42c.07,1.55-.47,2.52-2.2,2.59-1.85.07-2.76-.67-2.72-2.59.03-1.68.88-2.35,2.47-2.35,1.59,0,2.51.65,2.45,2.34Z"/>
  <path d="m440.47,154.57c1.62.3,2.85,1.26,2.87,2.87.01,1.84-1.25,3.15-3.12,2.98-1.39-.12-3.14-.76-2.93-2.64.19-1.7,1.3-2.95,3.18-3.21Z"/>
  <path d="m445.88,41.83c.02,1.74-1.01,2.24-2.56,2.24-2.05,0-2.45-1.24-2.33-2.95.13-1.82,1.36-2.01,2.8-1.96,1.78.06,2.16,1.19,2.09,2.68Z"/>
  <path d="m12.69,207.07c1.62-.06,2.39.75,2.39,2.38,0,1.56-.56,2.49-2.27,2.54-1.88.06-2.72-.75-2.66-2.65.05-1.71.95-2.33,2.55-2.27Z"/>
  <path d="m65.34,129.11c1.49-.07,2.59.3,2.7,2.08.11,1.79-.47,2.86-2.45,2.84-1.59-.01-2.46-.67-2.47-2.35,0-1.54.48-2.58,2.22-2.57Z"/>
  <path d="m46.05,230.56c.05,1.61-.7,2.4-2.36,2.43-1.93.04-2.64-.91-2.56-2.75.08-1.74,1.08-2.2,2.61-2.19,1.7,0,2.36.9,2.3,2.5Z"/>
  <path d="m355.97,186.04c-.15,4.1.91,8.63-4,11-.2-3.51,3.53-6.22,2-10,.67-.33,1.33-.67,2-1Z"/>
  <path d="m423.43,134.6c-.32,1.63-1.3,2.88-2.92,2.86-1.82-.02-3.13-1.25-2.95-3.19.15-1.62,1.37-2.73,3.04-2.62,1.65.11,2.56,1.32,2.83,2.95Z"/>
  <path d="m496.37,132.55c-1.63-.32-2.89-1.28-2.87-2.91.01-1.83,1.25-3.14,3.18-2.96,1.62.15,2.74,1.37,2.63,3.04-.1,1.64-1.31,2.57-2.94,2.83Z"/>
  <path d="m463.6,185.57c1.66.41,2.87,1.43,2.73,3.06-.15,1.79-1.38,3.09-3.36,2.75-1.6-.28-2.67-1.46-2.41-3.17.24-1.62,1.41-2.51,3.04-2.63Z"/>
  <path d="m355.97,177.04c2.36,3,2.36,6,0,9-1.46-3-1.46-6,0-9Z"/>
  <path class="cls-3" d="m367.27,98.52c-3.6,7.79-9.61,13.81-15.3,19.85-19.45,20.64-41.75,37.77-66.36,51.89-3.34,1.92-6.32,2.14-9.82.24-12.15-6.57-25.38-7.86-37.06-1.01-9.81,5.76-14.46-1.72-20.43-4.94-14.16-7.64-26.82-17.56-38.85-28.36-12.4-11.13-24.03-22.85-33.84-36.33-.16-.23-.09-.62-.13-.95,1.14-1.2,2.29-.14,3.15.25,6.86,3.19,12.01.16,17.07-4.17,6.25-5.36,12.17-11.07,19.22-15.54,17.26-10.95,36.09-17.04,56.25-19.36,28.89-3.32,56.05,2.34,81.44,16.36,8.73,4.82,16.94,10.64,23.78,17.84,5.2,5.47,10.52,6.96,17.37,4.71,1.04-.34,2.05-1.26,3.5-.48Z"/>
  <path class="cls-3" d="m256.05,339.92c-3.46-8.68-5.94-17.07-9.46-25.09-7.14-16.25-16.83-30.47-30.95-41.34-3.03-2.34-1.97-3.38.34-4.41,11.15-4.96,15.53-13.2,14.21-25.45-1.1-10.19,1.34-20.17,5.97-29.35,3.99-7.91,10.34-13.97,19.06-15.47,5.81-1,11.13,3.19,15.19,7.3,6.99,7.07,9.9,16.19,11.66,25.85,1.2,6.63,1.26,13.28.81,19.86-.47,6.95,3.45,10.72,8.29,14.22.93.67,2.08,1.05,3.1,1.61,5.69,3.09,5.48,3.36.54,7.53-12.63,10.67-22.03,23.84-28.69,38.95-3.41,7.73-6.3,15.66-8.64,23.78-.15.54-.67.97-1.42,2.01Z"/>
  <path class="cls-3" d="m199.03,369.97c-4.18-.42-7.58,2.45-9.04,5.05-3.63,6.47-10.62,8.89-15.09,14.21-1.31,1.56-2.86,3.12-4.32,4.66-2.77,2.92-5.43,2.92-7.25-.53-7.74-14.69-17.82-27.95-25.83-42.47-2.96-5.36-5.25-5.33-10.33-1.88-9.08,6.15-16.23,14.57-25.27,20.71-1.9,1.29-3.8,2.51-6.64,3.09.52-3.53,2.04-6.43,3.23-9.05,3.88-8.59,6.54-17.61,9.21-26.54,2.49-8.33,5.79-16.46,6.69-25.4.47-4.66,1.77-9.59,2.68-14.35,1.18-6.18,2.73-12.46,2.05-18.89-.27-2.55.55-4.91.82-7.36.86-7.95,1.88-15.93,2.02-23.91.3-16.64.13-33.28.06-49.92-.01-2.7.4-5.73-2.73-7.34-1.25-1.27-.74-2.69-.35-4.09.49-20.95,7.97-39.75,17.97-58.58,3.08,3.97,5.81,7.6,8.66,11.13,2.61,3.24,4.9,6.97,8.13,9.43,6.1,4.65,5.65,9.39,2,15.15-2.46,3.87-3.37,8.38-3.73,12.95-.71,3.68-.68,7.36-.01,11.03,1.6,11.35,7.28,20.3,16.19,27.29,9.44,7.4,20.39,10.79,32.18,11.58,2.54.17,3.05.75,2.63,3.13-.79,4.48-1.65,8.99-1.8,13.52-.09,2.78-1.12,4.1-3.35,5.38-13.27,7.55-26.46,15.24-40.33,23.26,8.76,4.91,16.67,10.07,25.16,13.95,17.36,7.92,28.24,21.59,36.37,38.16,8.2,16.71,14.42,34.18,19.92,51.9,5.61,18.07,10.77,36.28,16.1,54.43.19.65.16,1.35,1.53,1.52,3.54-12.16,7.18-24.46,10.77-36.79,4.13-14.2,8.41-28.38,13.82-42.2,5.22-13.33,10.72-26.47,18-38.82,6.49-10.99,14.85-19.84,26.46-25.68,9.63-4.84,18.87-10.47,28.25-15.74-.94-2.45-3-3.22-4.82-4.27-11.66-6.75-23.27-13.57-35.01-20.16-2.93-1.65-4.35-3.39-4.18-6.96.18-3.89.67-7.83-.76-11.77-1.27-3.5,1.24-3.65,4.07-3.83,18.42-1.19,34.19-7.55,43.19-24.81,7.55-14.48,4.79-28.9-2.11-42.88-.74-1.49-1.78-2.42-.04-4.15,7.78-7.77,14.51-16.45,21.24-25.56,5.96,8.78,9.1,18.45,12.28,28.05,2.91,8.81,4.87,17.88,5.27,27.22.06,1.42.72,2.82,1.1,4.22-.01.33-.02.65-.03.98.84,8.93.24,17.88.35,26.81.11,9.95.03,19.9.03,29.86-.18,4.46.37,8.94-.3,13.39.61,8.49.77,17.05,1.94,25.47,1.51,10.85,3.73,21.61,5.83,32.37,3.91,20.08,10.8,39.17,19.54,57.62,1.55,3.27,3.07,6.55,3.96,10.41-5.83-4.67-11.6-9.41-17.49-14.01-9.3-7.25-18.01-15.26-27.79-21.9-5.13,2.9-6.9,8.39-9.76,12.96-6.87,11.01-13.51,22.17-20.62,33.03-2.22,3.39-4.45,3.73-7.85.75-4.24-3.73-8.3-7.69-12.55-11.41-3.87-3.39-7.2-7.37-11.3-10.48-6.33-4.8-7.46-4.58-11.52,2.07-2.26,3.7-4.58,7.35-6.86,11.03-12.8,20.63-25.07,41.58-38.18,62.02-4.3,6.71-6.36,6.52-10.74-.34-11.63-18.21-22.27-37.02-34.01-55.16-3.61-5.58-6.77-11.47-10.39-17.06-1.33-2.05-2.41-4.51-5.43-4.61-.73-.07-1.39-.3-1.9-.86Z"/>
  <path class="cls-4" d="m201.04,369.93c3.68-1.47,4.6,2,5.72,3.79,9.35,14.84,18.45,29.84,27.58,44.82,6.23,10.23,12.35,20.52,18.59,30.75,2.23,3.65,4.18,3.5,6.5-.21,10.75-17.22,21.81-34.26,32.16-51.72,4.82-8.13,9.72-16.2,14.71-24.22,3.99-6.41,5.2-6.87,11.16-2.03,7.75,6.3,14.88,13.37,22.28,20.1,1.35,1.23,2.62,2.57,4.1,3.62,1.86,1.32,3.33,1.38,4.81-1.06,8.51-14.01,17.24-27.89,25.8-41.87,1.38-2.25,2.6-4.31,5.68-3.87-10.42,16.98-20.83,33.96-31.26,50.93-.8,1.3-1.27,3.29-3.52,1.15-7.54-7.19-15.23-14.22-22.87-21.31-2.83-.63-4.07-3.23-6.06-4.9-3.56-3.01-4.42-2.91-6.72,1.12-1.64,2.88-3.59,5.51-5.92,7.86-15.74,25.35-31.47,50.69-47.5,76.51-4.97-8.1-9.63-15.93-14.53-23.61-12.31-19.26-23.36-39.32-36.53-58.05-1.02-1.45-1.63-3.17-2.43-4.77-.68-.96-2.63-1.18-1.74-3.03Z"/>
  <path class="cls-7" d="m394.11,244.97c-.01-18.98-.03-37.97-.04-56.95.79.77.86,1.76.86,2.76-.04,18.11-.07,36.22-.11,54.33-.31.35-.54.31-.7-.14Z"/>
  <path class="cls-2" d="m303.77,382.87c2.68-4.52,5.35-9.03,8.37-14.12,3.66,3.56,6.99,6.8,10.33,10.04-2.46.26-3.8-1.25-5.29-2.95-2.61-2.96-4.78-2.59-7.02.67-1.72,2.51-3.21,5.29-6.39,6.35Z"/>
  <path class="cls-10" d="m394.11,244.97c.24.04.47.08.7.14-.41,4.31,1.36,8.74-.67,12.97,0-4.37-.02-8.74-.03-13.1Z"/>
  <path class="cls-2" d="m201.04,369.93c.58,1.01,1.16,2.02,1.74,3.03-2.07-.05-4.13-.1-6.2-.16.82-.95,1.64-1.89,2.46-2.84.67-.01,1.34-.02,2.01-.04Z"/>
  <path class="cls-5" d="m118.95,185.94c.12,1.36.23,2.73.35,4.09-.14,20.56-.27,41.12-.45,61.69-.02,1.79.33,3.66-.66,5.35.02-22.75.04-45.5.1-68.26,0-.96.44-1.91.67-2.87Z"/>
  <path class="cls-8" d="m151.96,187.06c-1.52-3.68-1.5-7.36.01-11.03,0,3.68,0,7.36-.01,11.03Z"/>
  <path class="cls-3" d="m302.99,317.98c2.85-6.48,7-12.03,12-16.99,2.28-1.73,4.46-3.62,7-5,7.66-4.33,15.33-8.66,22.99-12.99,2.17-1.62,4.87-2.3,7-4,3.02-1.09,4.64-3.8,6.28-6.14,1.91-2.73.07-5.03-2.42-6.54-8.21-4.95-16.43-9.88-24.71-14.7-4.13-2.41-8.48-4.44-12.14-7.6-2.32-1.76-4.21-3.72-3-7-.75-4.23.9-6.04,5.3-6.73,12.51-1.98,23.09-7.96,31.9-17,4.07-4.17,6.77-9.33,9.78-14.25,4.23-12,3.67-23.99,0-35.99-1.84-2.35-3.55-4.75-3-8,1.38-2.24,3.66-3.72,5-6,2-2.33,4-4.66,6-7,3.6-4.34,3.77-4.34,6,0,1,4.59,3.35,8.66,5,12.99,1.02,3.66,2.25,7.26,3,11,1.41,3.18.23,6.89,2,10,.54,5.72,1.34,11.45,1.41,17.17.21,17.43.29,34.86,0,52.28-.17,10.28.73,20.51,1.38,30.7.61,9.6,2.32,19.26,4.22,28.79,1.25,3.22,1.15,6.7,2,10,.28,3.08.62,6.16,2,9,.53,3.79,2.37,7.23,3,11,1.31,2.9.87,6.37,3,9,.9,3.03,1.59,6.13,3,9l3.76,11.12-.89.93c-8.29-6.68-16.57-13.37-24.86-20.05-3.35-2.79-6.24-1.55-9,1-5.33,4.3-7.43,10.81-11.04,16.28-6.01,9.1-11.77,18.38-17.39,27.72-2.18,3.63-3.72.82-5.56-.02-1.66-3.18-5.36-4.65-6.98-7.65-3.87-7.16-11.71-9.76-16.9-15.45-4.3-4.72-8.69-3.85-12.34,1.53-8.48,12.51-15.96,25.66-23.92,38.49-7.18,11.57-14.5,23.05-21.37,34.81-3.66,6.28-4.64,6.18-8.4.07-14.17-23.04-28.63-45.9-42.25-69.28-.59-1-1.3-1.93-1.97-2.88-4.63-6.56-8.13-7.01-14.24-1.97-7.96,6.56-14.88,14.25-22.69,21-4.32,3.74-4.34,3.96-7.14-.82-6.04-10.32-12.54-20.34-18.83-30.5-.78-1.25-1.43-2.66-2.89-3.35-.91-3.73-2.57-6.95-6-9-3.33-2.77-6.66-1.25-10,0-5.95,4.97-11.86,9.99-17.87,14.88-1.17.95-2.44,1.7-3.12,3.12-2.24.05-2.89-.96-2-3,.67-1.67,1.33-3.33,2-5,1.69-3.54,2.39-7.43,4-11,.67-2.33,1.33-4.66,2-7,2.9-9.19,5.42-18.47,7-27.99,3.22-15.35,5.26-30.83,5.51-46.53.02-1,.03-1.99.49-2.91,3.96-2.14.92-4.78.51-7.25-.21-21.27.29-42.52-.26-63.77-.17-6.54,1.92-12.97,2.75-19.48,1.05-5.07,2.49-10.04,4-14.99,1.34-2.54,2.46-5.16,3-8,.73-.88.58-2.31,1.79-2.9,1.48-1.07,3.08-1.35,4.81-.73.69.34.93,1.08,1.4,1.63,3.95,2.48,5.97,6.69,9,10,2.21,3.38-.54,5.53-2,8,.16,1.46-.32,2.75-1,4-2.76,10-3.93,19.99,0,29.99,3.9,11.17,11.4,19.42,20.99,25.99,6.82,3.85,13.89,6.99,21.72,8.3,5.93,1,5.92,1.2,5.24,7.33-.21,1.93.02,4.07-1.97,5.36-.67.67-1.33,1.33-2,2-2.6,1.46-5.45,2.44-8,4-1.39.56-2.26,2.15-4,2-4.4,4-9.92,6.12-14.99,9-1.39.56-2.26,2.15-4,2-1.47,2.29-4.23,2.95-6.02,4.91-3.3,3.59-3.41,4.55.02,8.11,1.25,1.29,2.53,2.55,3.88,3.74,9.49,5.15,18.76,10.68,28.31,15.7,8.58,4.5,14.6,11.45,19.62,19.38,6.69,10.57,12.4,21.75,16.08,33.66,2.74,8.89,7.07,17.13,9.54,26.09,2.51,9.11,5.52,18.08,8.12,27.17,2.59,9.08,5.47,18.08,7.91,27.21.17.64-.13-.14.11.49,1.43,3.82,3.09,7.64,7.68,8.28,3.04.42,6.17-3.79,7.66-8.69,9.53-31.44,17.69-63.33,30.9-93.56,2.46-5.63,5.81-10.82,8.13-16.51Z"/>
  <path class="cls-3" d="m142.06,353.97c2.8-.01,3.41,2.54,4.46,4.22,5.98,9.56,11.76,19.24,17.6,28.9,2.71,4.49,2.68,4.4,6.67.67,8.12-7.58,16.26-15.16,24.59-22.52,3.86-3.41,6.31-3.1,9.89.47,6.08,6.07,9.63,13.86,14.09,21.02,11.82,18.98,23.46,38.07,35.11,57.16,1.68,2.75,2.56,1.64,3.75-.3,6.07-9.9,12.18-19.76,18.3-29.63,9.35-15.08,18.62-30.21,28.09-45.21,4.67-7.39,8.93-7.67,15.16-1.51,3.16,3.13,6.04,6.69,11.06,6.95.64.03,1.73.91,1.78,1.46.49,5.91,5.08,8.58,9.08,11.68,1.11.86.65,1.71.29,2.63-7.17-6.67-14.42-13.25-21.48-20.03-7.29-6.99-10.45-6.89-15.83,1.72-14.93,23.92-29.67,47.97-44.49,71.96-.52.85-1.2,1.61-1.65,2.49-1.74,3.42-3.13,3.13-5.06-.02-12.97-21.23-26.56-42.09-38.79-63.78-2.44-4.33-4.91-8.71-7.92-12.65-3.45-4.51-7.93-6.26-12.88-1.23-7.79,7.91-16.34,15.07-24.41,22.71-2.28,2.16-3.7,1.64-5.09-.63-7.45-12.17-14.87-24.35-22.31-36.53Z"/>
  <path class="cls-3" d="m302.99,317.98c.25,2.51-1.21,4.46-2.26,6.49-8.76,17.01-15.01,34.96-20.81,53.16-5.37,16.85-9.9,33.93-15.21,50.78-.2.63-.44,1.25-.67,1.88-1.35,3.71-3.2,7.54-7.58,7.46-4.19-.08-6.54-3.55-7.72-7.37-3.32-10.76-6.49-21.57-9.72-32.36-3.79-12.69-6.51-25.87-12.5-37.61-2.18-4.27-2.85-8.34-4.27-12.51-5.15-15.11-12.18-29.42-22.06-42.08-4.56-5.85-11.01-9.45-17.44-12.98-8.27-4.54-16.47-9.22-24.7-13.84.67-.64,1.33-.56,2,0,22.42,10.49,43.72,21.71,54.52,46.49,8.94,20.5,16.7,41.31,23.07,62.69,4.03,13.52,7.8,27.12,11.92,40.62,1.01,3.29,2.72,7.1,6.97,6.64,4-.43,5.56-3.67,6.59-7.63,2.6-10.08,5.7-20.04,8.82-29.97,6.74-21.49,12.97-43.17,22.18-63.8,2.5-5.6,5.12-11.14,8.88-16.05Z"/>
  <path class="cls-3" d="m125.06,259.01c-1.33,2.11-.94,4.47-1,6.77-.35,13.85-2.28,27.5-4.99,41.06-.15.75-.66,1.44-1,2.15,1.11-8.16,1.89-16.39,3.43-24.47.94-4.92.91-9.89,1.32-14.77,2.15-25.65,1.35-51.41,1.07-77.11-.09-8.15,1.37-15.83,3.18-23.59-3.71,28.25-1.33,56.64-2,84.97,1.32,1.67,1.32,3.33,0,5Z"/>
  <path class="cls-3" d="m393.95,304.99c-2.51-7.02-3.04-14.42-3.91-21.71-2.73-22.76-2.23-45.65-2.02-68.5.12-12.94-.65-25.83-1.07-38.74,1.67,5.38,1.78,11,1.9,16.5.3,14.28.14,28.57.09,42.86-.07,21.17.58,42.28,4.87,63.13.43,2.08.11,4.31.14,6.46Z"/>
  <path class="cls-3" d="m194.03,243.01c1.77-2.8.87-6.09,1.64-9.13.61-2.4-2.43-2.5-3.89-2.65-6.84-.68-12.98-3.27-19.11-6.12-1.59-.74-2.83-1.58-3.63-3.1,1.55-.15,2.95.35,4.24,1.12,6.33,3.75,13.29,5.66,20.46,6.84,2.2.36,3.36,1.3,3.25,3.49-.16,3.42,1.06,7.31-2.96,9.54Z"/>
  <path class="cls-3" d="m160.05,279h-2c-9.63-7.66-9.32-10.73,1.67-16.32.44-.23.89-.45,1.33-.67.1,2.55-2.3,2.95-3.69,4.18-4.21,3.72-4.31,5.19-.51,9.13,1.13,1.17,2.14,2.45,3.2,3.68Z"/>
  <path class="cls-3" d="m362.96,163.05c2.5,4.37,3.51,8.99,3.09,14.09-.37,4.56.05,9.18-.11,13.77-.1,2.97-.79,5.86-2.98,8.13,2.65-7.81,1.71-15.91,2.1-23.92.21-4.28-2.47-7.87-2.1-12.06Z"/>
  <path class="cls-3" d="m148.05,196.03c-4.58-6.57-3.08-14.01-2.61-21.14.19-2.92.27-6.35,2.61-8.85-.06,2.28-.12,4.51-.71,6.8-1.57,6.08-2.02,12.22.2,18.35.54,1.48.36,3.22.51,4.84Z"/>
  <path class="cls-3" d="m118.07,308.99c-.74,9.73-3.07,19.06-7,27.99,1.77-7.49,3.39-15.03,5.41-22.45.5-1.83-.17-4.07,1.59-5.54Z"/>
  <path class="cls-3" d="m165.05,260.01c4.43-3.94,9.78-6.35,14.99-9-3.64,5.27-9.16,7.39-14.99,9Z"/>
  <path class="cls-3" d="m136.06,144.05c-.67.67-1.33,1.33-2,2,.23-1.11.22-2.35.74-3.3.89-1.62,1.06-4.6,3.4-4.21,2.47.41,4.05,2.62,3.86,5.5l-1-1c-2.06-1.63-3.72-1.26-5,1Z"/>
  <path class="cls-3" d="m131.06,154.05c-.58,5.2-2.09,10.15-4,14.99.11-5.32,1.44-10.32,4-14.99Z"/>
  <path class="cls-3" d="m103.07,359.97c0,1.44.67,2.44,2,3-1.01,1.74-2.23,3.19-4.72,3.24.58-2.34.86-4.61,2.72-6.24Z"/>
  <path class="cls-3" d="m149.05,162.05c.36-2.74,2.63-5.01,2-8,2.82,2.61,2.23,5-2,8Z"/>
  <path class="cls-3" d="m109.07,343.97c-.69,3.9-1.45,7.77-4,11,.69-3.9,1.45-7.77,4-11Z"/>
  <path class="cls-3" d="m184.04,249.01c2.01-2.64,4.76-3.8,8-4-2.01,2.64-4.76,3.8-8,4Z"/>
  <path class="cls-3" d="m376.96,142.05c-2-3.96-4-1.43-6,0,.29-2.28,1.64-4.26,3.75-4.2,1.88.06,2.37,2.3,2.25,4.2Z"/>
  <path class="cls-3" d="m384.96,166.04c-1.39-3.56-3.07-7.04-3-11,2.05,3.38,3.18,7.01,3,11Z"/>
  <path class="cls-3" d="m126.06,344.97c3.33-2.51,6.66-3.57,10,0-3.33-1.85-6.66.12-10,0Z"/>
  <path class="cls-3" d="m400.95,334.98c-1.45-3.54-3.41-6.95-3-11,1.45,3.54,3.41,6.95,3,11Z"/>
  <path class="cls-3" d="m375.96,345.97c3.35-3.9,5.35-4.13,9-1-3.23-1.76-6.1-.3-9,1Z"/>
  <path class="cls-3" d="m395.95,314.98c-1.5-3.17-2.06-6.52-2-10,2.47,2.97,1.96,6.54,2,10Z"/>
  <path class="cls-3" d="m321.98,295.99c-2.02,2.1-4.04,4.2-7,5,1.63-2.65,3.8-4.54,7-5Z"/>
  <path class="cls-3" d="m406.95,352.97c-2.28-2.57-3.01-5.66-3-9,1.77,2.74,2.67,5.77,3,9Z"/>
  <path class="cls-3" d="m315.98,237.02c-.3,2.89,1.66,4.81,3,7-3.59-1.22-4.99-3.38-3-7Z"/>
  <path class="cls-3" d="m351.97,279c-1.65,2.52-4.31,3.28-7,4,1.65-2.52,4.31-3.28,7-4Z"/>
  <path class="cls-3" d="m364.96,149.05c-.49,2.98-2.85,4.4-5,6,.47-3,2.87-4.38,5-6Z"/>
  <path class="cls-3" d="m150.96,240.62c.2,2.5-.6,3.57-2.52,3.34-3.01-.37-3.92-2.67-4.32-5.2-.29-1.81.62-2.91,2.55-2.69,3.05.35,3.72,2.78,4.29,4.55Z"/>
  <path class="cls-3" d="m157.97,254.46c-.49,2.01-1.13,3.63-3.55,3.53-2.4-.1-3.36-1.79-3.12-3.65.25-1.92.36-4.62,3.62-4.28,2.82.3,2.2,2.88,3.05,4.4Z"/>
  <path class="cls-3" d="m162.98,333.43c-1.44,2.35-2.79,4.83-4.45,7.08-.58.78-1.85.38-2.62-.4-.94-.96-1.15-2.67-.17-2.98,3.12-.96,1.04-6.45,5.41-5.92,1.04.13,1.58,1.06,1.82,2.21Z"/>
  <path class="cls-3" d="m183.95,315.68c.2,2.42-.61,3.33-2.54,3.29-2.27-.04-3.34-1.15-3.35-3.39-.01-1.87.55-3.41,2.67-3.47,2.76-.07,2.92,2.16,3.22,3.57Z"/>
  <path class="cls-3" d="m209.97,354.59c.02,1.85-1.01,2.35-2.56,2.34-2.05,0-2.45-1.24-2.33-2.95.13-1.82,1.36-2.02,2.8-1.96,1.77.07,2.18,1.18,2.09,2.57Z"/>
  <path class="cls-3" d="m133.02,262.54c.05,1.61-.7,2.4-2.36,2.43-1.93.04-2.64-.91-2.56-2.75.08-1.74,1.08-2.2,2.61-2.19,1.7,0,2.36.9,2.3,2.5Z"/>
  <path class="cls-3" d="m143.39,231.96c-1.73.05-2.3-.94-2.3-2.5,0-1.63.76-2.39,2.4-2.42,1.94-.03,2.62.95,2.53,2.77-.09,1.75-1.11,2.22-2.63,2.14Z"/>
  <path class="cls-3" d="m141.99,287.09c.08,1.65-.29,2.75-2.07,2.86-1.79.11-2.86-.47-2.84-2.45.01-1.59.67-2.46,2.35-2.47,1.53,0,2.59.46,2.56,2.06Z"/>
  <path class="cls-3" d="m128.02,298.53c.05,1.61-.7,2.4-2.36,2.43-1.93.04-2.64-.91-2.56-2.75.08-1.74,1.08-2.2,2.61-2.19,1.7,0,2.36.9,2.3,2.5Z"/>
  <path class="cls-3" d="m131.99,311.92c-1.84.09-2.82-.44-2.9-2.18-.08-1.85.65-2.77,2.57-2.73,1.67.03,2.37.86,2.36,2.46-.02,1.56-.57,2.57-2.03,2.45Z"/>
  <path class="cls-3" d="m162.78,234.07c1.74-.02,2.24,1.01,2.24,2.56,0,2.05-1.24,2.45-2.95,2.33-1.82-.13-2.01-1.36-1.96-2.8.06-1.78,1.19-2.16,2.68-2.09Z"/>
  <path class="cls-3" d="m135.01,322.34c.07,1.54-.46,2.53-2.19,2.6-1.85.08-2.77-.65-2.73-2.57.03-1.67.86-2.36,2.46-2.36,1.58,0,2.52.63,2.46,2.33Z"/>
  <path class="cls-3" d="m119.16,323.04c1.86-.08,2.8.5,2.87,2.22.07,1.87-.71,2.73-2.62,2.69-1.7-.04-2.33-.91-2.32-2.5.02-1.58.64-2.54,2.07-2.42Z"/>
  <path class="cls-3" d="m205.28,339.03c1.49-.07,2.59.3,2.7,2.08.11,1.79-.47,2.86-2.45,2.84-1.59-.01-2.46-.67-2.47-2.35,0-1.54.48-2.58,2.22-2.57Z"/>
  <path class="cls-3" d="m136.8,206.88c-1.6,0-2.55-.83-2.59-2.36-.03-1.29.77-2.21,2.11-2.31,1.6-.13,2.53.8,2.58,2.33.04,1.29-.79,2.11-2.1,2.35Z"/>
  <path class="cls-3" d="m164.9,372.21c0,1.6-.82,2.55-2.36,2.59-1.29.04-2.21-.76-2.32-2.1-.13-1.6.8-2.53,2.32-2.59,1.3-.04,2.11.79,2.36,2.09Z"/>
  <path class="cls-3" d="m197.92,328.5c-.24,1.48-1.03,2.44-2.63,2.3-1.34-.11-2.14-1.03-2.1-2.32.05-1.53.99-2.45,2.59-2.32,1.34.11,1.98,1.03,2.15,2.34Z"/>
  <path class="cls-3" d="m189.93,304.51c-.24,1.48-1.03,2.44-2.63,2.3-1.34-.11-2.14-1.03-2.1-2.32.05-1.53.99-2.45,2.59-2.32,1.34.11,1.98,1.03,2.15,2.34Z"/>
  <path class="cls-3" d="m125.06,259.01v-5c1.94-.11,3.09.51,2.99,2.74-.09,2.1-1.43,2.27-2.99,2.25Z"/>
  <path class="cls-3" d="m136.06,144.05c.99-3.73,2.45-5.08,5-1-1.75-.11-3.46.05-5,1Z"/>
</svg>