<?xml version="1.0" encoding="UTF-8"?>
<svg width="93px" height="32px" viewBox="0 0 93 32" version="1.1" xmlns="http://www.w3.org/2000/svg" xmlns:xlink="http://www.w3.org/1999/xlink">
    <!-- Generator: Sketch 51.2 (57519) - http://www.bohemiancoding.com/sketch -->
    <title>WS-Logo</title>
    <desc>Created with Sketch.</desc>
    <defs>
        <path d="M20.0889397,17.6143658 C17.9622634,17.6525303 16.4461022,17.146792 15.6357502,15.8578618 C16.1729801,15.9290397 16.7433405,15.9572534 17.3405097,15.9426198 C17.3618163,15.9426198 17.3796108,15.9426198 17.4024392,15.9403954 C17.9537174,15.9269325 18.5323897,15.8824463 19.1341246,15.8112683 C19.9139215,15.7186667 21.0024295,15.341119 21.7476911,15.2541367 C22.727559,15.5709255 24.8795223,15.5011524 24.7591753,15.600544 C23.4621673,16.6656382 20.777657,17.5976249 20.0889397,17.6143658 Z M18.0939544,14.9449807 C15.9669269,14.9832623 14.4511168,14.4776411 13.6412332,13.1884767 C14.1791654,13.2591865 14.7488234,13.2870489 15.3455244,13.2732347 C15.3668309,13.2732347 15.3843913,13.2732347 15.4072197,13.2710104 C15.9592003,13.2574304 16.5383409,13.2134125 17.1383198,13.1418833 C17.9196386,13.0492816 18.6825776,12.9577337 19.4290098,12.8714538 C19.744745,13.631466 20.2026021,14.2155235 20.7767087,14.6490302 C20.624636,14.6718587 20.4746705,14.6969114 20.3203735,14.7224325 C19.5303916,14.8501548 18.7826716,14.9281228 18.0939544,14.9449807 Z M10.5365503,6.53728073 C7.34688701,6.57989387 4.82322955,6.05589281 4,4.75689465 L33.7223094,4.57333039 C34.5064379,4.56630624 35.2011256,4.69157012 35.6578119,4.92102546 C36.1271418,5.16101701 36.3203057,5.42535892 36.3258079,5.78277072 L36.3363442,5.78277072 L36.3363442,5.81683781 L36.3272128,5.81683781 L36.3272128,5.83755903 L36.3272128,5.84645628 C36.3776695,7.63960289 37.5938999,8.51293799 38.0786828,8.79507439 C38.0962431,9.00579868 38.1186033,9.33359201 38.1429537,9.64007878 L37.8722901,9.84178875 C37.2964274,9.73865092 36.4657054,9.53050215 35.9269537,9.20399658 C34.6485597,8.46728106 34.209902,6.68595843 34.209902,6.67916842 C34.1732594,6.50871589 34.0294986,6.39375408 33.8696993,6.39504184 C33.8696993,6.39504184 17.4862373,6.49513588 10.5365503,6.53728073 Z M24.4105436,12.2381102 C23.8331591,12.3085858 23.2760275,12.3507306 22.7462901,12.3643106 C20.1740489,12.4145333 18.4022089,11.7878627 17.624168,10.1272382 C17.7144282,10.1209165 17.8030495,10.1134241 17.8924903,10.1076877 C18.9978562,10.4257643 20.3565596,10.5825197 21.9273921,10.5594571 C21.9756245,10.5586377 22.0277202,10.5586377 22.0880108,10.5551256 C24.9971766,10.4567876 31.0594802,9.82004903 32.3142263,9.68237583 C32.4761328,10.0277295 32.8053309,10.6431615 33.3269906,11.2084879 C30.9561083,11.4731811 27.8145604,11.8280173 24.4105436,12.2381102 Z M25.6189069,14.7094144 C23.479236,14.7467594 21.1444109,14.3377202 20.3328882,13.0284199 C21.0525117,13.1884533 21.84144,13.250617 22.6849225,13.2310665 C22.7091558,13.2275544 22.7363158,13.2275544 22.762071,13.2275544 C23.3108907,13.2147939 23.8860509,13.1666785 24.4807617,13.0976078 C28.3161778,12.6354191 31.2766199,12.2411306 33.7177437,11.9712864 C30.1895167,13.0417658 26.3091461,14.6903321 25.6189069,14.7094144 Z M12.977159,9.58998494 C10.140693,9.64664636 8.16023593,9.00124469 7.32682138,7.27517865 C8.30622103,7.43591445 9.39519732,7.49093691 10.5409521,7.49140518 C11.7231153,7.48367862 13.1795714,7.47232293 14.7817784,7.46131844 C14.952348,8.23853985 15.4467305,8.87586374 16.2076794,9.36930978 C15.4820854,9.4244493 14.7437309,9.47958882 13.9852405,9.53847455 C13.6412917,9.56434681 13.3082302,9.58296079 12.977159,9.58998494 Z M35.4059496,11.55095 C34.5308585,11.3616494 33.8887347,10.7405981 33.4510136,10.1534968 C33.0224238,9.56627845 32.827738,9.04965274 32.827738,9.04508705 L32.7269415,8.77114548 L32.4813306,8.79924205 C32.470092,8.79924205 25.2764332,9.58688261 22.0812676,9.69692751 C22.0253086,9.69821527 21.9661888,9.69915182 21.9119858,9.70219562 C19.8068502,9.7521841 18.1379138,9.41877145 17.0298553,8.8784978 C16.1662369,8.46372216 15.6834442,7.94826714 15.5049139,7.4559918 C22.556568,7.40623745 31.9493689,7.34430792 33.6143249,7.33271809 C33.8029231,8.01218684 34.3450699,9.58688261 35.5920894,10.4512034 C36.0476051,10.7546464 36.5827277,10.971107 37.0751201,11.1167409 L36.9236327,11.6707117 C36.7717942,11.7164857 36.6208922,11.7614402 36.4703414,11.8088531 C36.1249877,11.7203489 35.757625,11.6312594 35.4059496,11.55095 Z M15.3949626,12.4110797 C12.860886,12.4594292 11.1055527,11.8477435 10.310888,10.2449511 C11.1042649,10.4106038 11.9835706,10.4737041 12.9189522,10.4504073 C12.9457611,10.4490025 12.9673018,10.4490025 12.9901302,10.4490025 C13.3282256,10.4409247 13.6773255,10.419384 14.0295863,10.3924581 C15.0004399,10.31929 15.9508065,10.2483461 16.8674571,10.1820851 C17.1824899,11.028026 17.6728921,11.6707351 18.3029578,12.1412356 C17.8954404,12.1898192 17.4851134,12.2380517 17.0691671,12.2872207 C16.4890899,12.3531306 15.9266902,12.3985533 15.3949626,12.4110797 Z M82.9689029,10.1272031 C82.1905108,11.7878275 80.4187878,12.4146152 77.8461955,12.3642755 C77.3171605,12.3506955 76.7590923,12.3085507 76.182059,12.2380751 C72.7779252,11.8279822 69.6371968,11.473263 67.2657291,11.2084528 C67.7872717,10.6431264 68.1176405,10.0276944 68.2787275,9.68245778 C69.5335907,9.82001391 75.595543,10.4567525 78.5048259,10.5550905 C78.5649994,10.5586025 78.6176805,10.5586025 78.6654447,10.559422 C80.2355748,10.5826017 81.5955659,10.4257292 82.7006977,10.1076526 C82.7902555,10.1133889 82.8785256,10.1208814 82.9689029,10.1272031 Z M77.8317023,13.227531 C77.8576917,13.227531 77.8843834,13.227531 77.9076801,13.2310431 C78.7511626,13.2505936 79.540208,13.188547 80.2598315,13.0283965 C79.4487771,14.3376968 77.3421196,14.7724912 75.2033851,14.7344438 C74.513146,14.7153615 70.4039054,13.0418595 66.874976,11.9713801 C69.3166851,12.2411072 72.2770101,12.6353957 76.111958,13.0975843 C76.7064346,13.1666551 77.2820632,13.2147705 77.8317023,13.227531 Z M85.0883795,7.45605033 C84.9092638,7.94832568 84.4267052,8.46378069 83.5635551,8.87843926 C82.4538576,9.41871292 80.7871456,9.75224264 78.6813075,9.70225415 C78.6265192,9.69909329 78.5676335,9.69827381 78.5117916,9.69698605 C75.316626,9.58694114 68.1232013,8.79918352 68.1113773,8.79918352 L67.8664689,8.77108695 L67.7646188,9.04514559 C67.7646188,9.04971128 67.5704013,9.56621992 67.1423968,10.1535553 C66.7045586,10.7406566 66.0618495,11.3617079 65.1875779,11.5510086 C64.8359024,11.6313179 64.4678374,11.7204075 64.1233031,11.8089117 C63.9726353,11.7614987 63.8216162,11.7164271 63.6696606,11.6707702 L63.5172367,11.1166824 C64.0107998,10.9710485 64.5447517,10.7547049 65.0000332,10.4512619 C66.2478722,9.58694114 66.7901361,8.01212831 66.9790855,7.33265955 C68.6435732,7.34436646 78.0363742,7.40629598 85.0883795,7.45605033 Z M85.8119481,7.46136526 C87.4138039,7.47236975 88.8688551,7.48372545 90.052189,7.49145201 C91.1972414,7.49098373 92.2862177,7.43584421 93.266671,7.27522548 C92.4319687,9.00117445 90.4526823,9.64669318 87.6160992,9.59003176 C87.285145,9.58300762 86.9522007,9.56427657 86.6071982,9.53840431 C85.8480054,9.47951858 85.1108216,9.42449613 84.3849935,9.36935661 C85.1467618,8.87591057 85.6411444,8.2384696 85.8119481,7.46136526 Z M66.8709957,4.57328356 L96.593188,4.75684783 C95.7698413,6.05584598 93.2455985,6.57996411 90.0561694,6.53723391 C83.1063654,6.49520612 66.7238399,6.39511208 66.7238399,6.39511208 C66.5636894,6.39370725 66.4200457,6.50878613 66.3836372,6.67912159 C66.3836372,6.6859116 65.9440429,8.46723423 64.6658831,9.20406682 C64.1272484,9.53045532 63.2965264,9.73860409 62.7208979,9.84174192 L62.4503513,9.64003195 C62.473531,9.33354519 62.4964765,9.00575185 62.5148564,8.79502757 C62.9992881,8.51289116 64.2150502,7.63955606 64.2664435,5.84640945 L64.2664435,5.83657565 L64.2664435,5.81679099 L64.2567267,5.81679099 L64.2567267,5.78272389 L64.267263,5.78272389 C64.2729993,5.42531209 64.4652267,5.16108725 64.9351419,4.9210957 C65.3917112,4.69164037 66.0863989,4.56625942 66.8709957,4.57328356 Z M83.2521983,15.9425846 C83.8488992,15.9572183 84.4197279,15.9290046 84.9570748,15.8578266 C84.1474253,17.1467569 82.6307958,17.6524951 80.5048219,17.6143306 C79.8158705,17.5977068 77.1305407,16.6657201 75.8338839,15.6005089 C75.7127174,15.5011173 77.8655002,15.5708904 78.8446657,15.2541016 C79.5907467,15.3410839 80.6794889,15.7186315 81.4589346,15.8112332 C82.0604354,15.8824111 82.6392247,15.9270145 83.1912053,15.9403603 C83.2130972,15.9425846 83.2310088,15.9425846 83.2521983,15.9425846 Z M85.2482021,13.2731996 C85.8440836,13.2870138 86.414444,13.2591513 86.9522592,13.1884416 C86.1417902,14.477606 84.6246924,14.9832272 82.499538,14.9449456 C81.8107037,14.9280877 81.0628666,14.8501197 80.2730017,14.7223974 C80.1184706,14.6968763 79.968271,14.6719406 79.8164324,14.6489951 C80.3898366,14.2154884 80.8476937,13.631548 81.1634289,12.8714186 C81.9103294,12.9576985 82.6738538,13.0492465 83.4536507,13.1418481 C84.0552685,13.2134944 84.6334726,13.2573953 85.1854531,13.2709753 C85.207345,13.2731996 85.2263102,13.2731996 85.2482021,13.2731996 Z M87.6740718,10.4503956 C88.6098047,10.4736924 89.4884079,10.4105921 90.2822531,10.2449394 C89.4879396,11.8477318 87.732021,12.4594175 85.1981785,12.411068 C84.6664509,12.3985416 84.1044024,12.3531188 83.5235058,12.287209 C83.1076765,12.238157 82.6975837,12.1898075 82.2906516,12.1412239 C82.9197807,11.6707234 83.410183,11.0280143 83.7254499,10.1820734 C84.6423347,10.2483344 85.5924671,10.3192783 86.5633207,10.3924464 C86.9158156,10.4193723 87.2644472,10.440913 87.6030109,10.4489908 C87.6258394,10.4489908 87.6459752,10.4489908 87.6740718,10.4503956 Z M61.3258797,8.76078487 C59.0045176,5.25058654 55.0835239,3.01409944 50.8051185,2.87806521 L50.7423695,2.87806521 L50.7423695,1.29552582 L52.8174184,0.0902999703 C53.0630292,-0.0712553159 53.4074464,-0.0100282038 53.5822305,0.225982997 L54.9824933,2.11688226 C55.1577457,2.35336174 55.5348251,2.49162028 55.821176,2.42430558 L58.1113978,1.88438313 C58.3963439,1.81660015 58.6992015,1.99196959 58.7826717,2.27363771 L59.4513701,4.52850465 C59.5357769,4.81134347 59.8426149,5.0687783 60.1345851,5.10495264 L62.4714003,5.37901128 C62.7629023,5.41436613 62.9873236,5.68222012 62.9688267,5.97571222 L62.9482226,6.30807125 L61.3258797,8.76078487 Z M39.3594299,8.76078487 L37.7373212,6.30807125 L37.7161317,5.97571222 C37.6982201,5.68222012 37.921939,5.41436613 38.2142605,5.37901128 L40.5506074,5.10495264 C40.8428118,5.0687783 41.150001,4.81134347 41.2338224,4.52850465 L41.9026379,2.27363771 C41.9857569,1.99196959 42.2889657,1.81660015 42.5741459,1.88438313 L44.8641336,2.42430558 C45.1507186,2.49162028 45.5274468,2.35336174 45.7030504,2.11688226 L47.102845,0.225982997 C47.2782144,-0.0100282038 47.6220462,-0.0712553159 47.8674229,0.0902999703 L49.9423547,1.29552582 L49.9423547,2.87806521 L49.8797228,2.87806521 C45.6020198,3.01409944 41.680675,5.25058654 39.3594299,8.76078487 Z M54.444643,10.3131556 C53.3330724,10.213881 52.2174044,10.1498442 51.1004486,10.1277182 C50.8664276,10.1243232 50.6425916,10.1208111 50.4217993,10.1208111 L50.1356826,10.1204599 C48.839377,10.1204599 47.5449445,10.1733751 46.2557802,10.2758105 C47.377887,9.36278903 48.8097585,8.93396511 50.3715767,8.94239408 C50.4017805,8.94321357 50.4326867,8.94590615 50.4584419,8.94590615 C51.9741349,8.97376859 53.3585935,9.40996786 54.444643,10.3131556 Z M38.8632093,11.3492166 C40.6858573,6.76151479 45.1624606,3.51671199 50.3995445,3.51671199 C55.6911825,3.51671199 60.2061845,6.82906363 61.9919558,11.4925092 C59.9217067,11.0341838 57.823244,10.6962055 55.7113184,10.4776376 C54.3581173,9.1480844 52.5195479,8.31256261 50.4811416,8.27076896 C50.4430942,8.27076896 50.4050467,8.26901292 50.3728528,8.26877878 C48.2797753,8.25590119 46.3803299,9.08381349 44.9858034,10.4315124 C42.9264418,10.6251446 40.8812456,10.9301094 38.8632093,11.3492166 Z M43.0064,7.66680974 L42.1431328,8.5300769 L42.5097931,8.89673715 L42.7331608,8.67348648 L43.8697842,9.80975866 L44.2764821,9.40317786 L43.1398587,8.26667154 L43.3730602,8.03346999 L43.0064,7.66680974 Z M44.4383886,6.59258415 L43.9519667,6.89860264 L45.0830878,8.69783684 L45.5695097,8.39170128 L45.1107161,7.66154163 L45.3422787,7.51649308 L45.8009552,8.24665273 L46.2876113,7.9404001 L45.1573096,6.14104883 L44.6700682,6.4475356 L45.074893,7.09118123 L44.8434475,7.23716633 L44.4383886,6.59258415 Z M47.3881774,5.23317837 L46.3790422,5.58028809 L47.0698666,7.58849054 L48.0791189,7.24114668 L47.9160417,6.76736824 L47.450341,6.92740163 L47.3449789,6.621149 L47.7624471,6.47738821 L47.6000724,6.0031415 L47.1814334,6.14701936 L47.0854368,5.86745847 L47.5517228,5.70719094 L47.3881774,5.23317837 Z M50.736118,4.89367813 L50.1721964,4.84766999 L50.4720102,7.00384772 L51.0279712,7.04927051 L51.2184425,6.19946629 C51.2577777,6.03030152 51.2758063,5.88174089 51.3012103,5.73669234 L51.3067126,5.73704355 C51.3149074,5.88478469 51.3112782,6.03463307 51.3280191,6.20824647 L51.4128942,7.08041088 L51.9663966,7.12559953 L52.5650878,5.04177047 L52.0064343,4.99728424 L51.8101095,5.84041552 C51.7717108,6.00384391 51.7530968,6.16656989 51.7250003,6.29710188 L51.7197322,6.2966336 C51.7098984,6.14058056 51.7054497,5.98733717 51.6924551,5.83081586 L51.6158919,4.96497318 L51.124319,4.92505263 L50.9061023,5.76689616 C50.8652452,5.92212971 50.8499091,6.07607551 50.8202907,6.23212855 L50.8145543,6.23166028 C50.807296,6.07279758 50.8036669,5.91686161 50.7934818,5.75788184 L50.736118,4.89367813 Z M53.7034672,5.38536813 L53.0378126,7.4014142 L53.5837055,7.58158347 L54.2494772,5.56542033 L53.7034672,5.38536813 Z M55.4466253,6.05149101 L54.3804775,7.88748489 L54.857768,8.16435319 L55.1699911,7.62618678 C55.27149,7.453627 55.347819,7.27053101 55.4360891,7.09036174 L55.4434644,7.08837157 L55.1989072,8.36255109 L55.6758465,8.63965353 L56.7418772,6.80342551 L56.265055,6.52655721 L55.993806,6.99389685 C55.8707665,7.20579183 55.7850719,7.43630078 55.6819341,7.65943439 L55.6740905,7.66130749 L55.919116,6.32590086 L55.4466253,6.05149101 Z M58.4037894,8.1465587 C57.9595124,7.71012528 57.4083513,7.98558875 57.0391156,8.36126333 C56.6615679,8.74454739 56.420991,9.2789676 56.8666728,9.7169229 C57.3411537,10.1829748 57.8694863,9.79044227 58.2369661,9.41652373 L58.2984273,9.35002851 L57.7275986,8.78973604 L57.4136194,9.1087492 L57.5642873,9.25719275 C57.4795293,9.34733592 57.3192618,9.44227892 57.2103876,9.33574608 C57.0518761,9.17945891 57.3210178,8.92260941 57.4207607,8.80846709 C57.5336152,8.69362236 57.8593013,8.33024003 58.0481337,8.51602861 C58.1204824,8.58685538 58.0674501,8.72101651 58.0126618,8.78517035 L58.5527013,9.02762035 C58.6796041,8.72171893 58.6483467,8.38736973 58.4037894,8.1465587 Z M19.4252753,21.3357684 L21.5013778,24.2281933 L20.743824,24.8937309 L18.0202126,21.0997572 L18.1591736,20.9997802 C27.2206691,14.4819609 38.5009743,10.9983373 49.9221135,10.9752747 L50.0936197,10.9749235 L50.0936197,11.9842928 L49.9223476,11.9845269 C39.0097563,12.0065359 28.1870741,15.2491144 19.4252753,21.3357684 Z M50.0935963,20.4881533 L49.9223242,20.4886216 C40.5304599,20.5115671 31.5669511,23.7603503 24.0024175,29.1408437 L23.8632224,29.23965 L21.1596298,25.4726022 L21.9168324,24.8067134 L24.0974776,27.8455918 C31.695493,22.65276 40.6208372,19.5052416 49.9217389,19.483818 L50.0935963,19.4833497 L50.0935963,20.4881533 Z M51.1175524,10.9819008 L50.8022854,10.9776863 L50.8022854,11.9861191 L50.9692259,11.9904506 L51.1078357,11.9917384 C56.6167538,12.1004955 62.0539087,12.9199789 67.2674617,14.6629029 C72.2531983,16.3311368 76.9223802,18.6962828 81.1493923,21.6940699 L78.9817418,24.6416344 L79.738242,25.3061183 L82.5579671,21.4694144 L82.4197086,21.3676814 C73.4752821,14.8153268 62.3589906,11.2036296 51.1175524,10.9819008 Z M76.4082364,28.1432633 L78.5601996,25.2150152 L79.3171681,25.8800844 L76.6277408,29.538258 L76.4898335,29.4367592 C69.1116738,24.0278179 60.2874773,20.677653 50.9701859,20.4925668 L50.8021918,20.4889377 L50.8021918,19.4835487 L50.9773271,19.4870608 C60.2044753,19.6699226 68.9943706,22.9197594 76.4082364,28.1432633 Z M24.5956298,19.6388291 C24.5066573,19.68952 24.4979942,19.7757999 24.5682357,19.8989565 C24.5873179,19.9313846 24.6142438,19.9676761 24.6487792,20.0078307 C24.6834316,20.0478684 24.7477025,20.1102662 24.8421772,20.1939705 C25.8344545,21.0607498 26.3199398,21.5025683 27.2685503,22.4041171 C27.2751062,22.4004879 27.2788524,22.398849 27.2851741,22.3949857 C27.0365195,21.0941144 26.9234308,20.4391131 26.7245305,19.121501 C26.7095456,19.0201192 26.6957315,18.9454291 26.6821515,18.8975479 C26.6696251,18.8500179 26.6546402,18.8090437 26.6375481,18.775679 C26.572809,18.6497127 26.5010456,18.6073337 26.4230777,18.6474884 C26.3862009,18.5754909 26.3671186,18.5399019 26.3302419,18.4683728 C26.9495372,18.1480718 27.2621115,17.9931895 27.8900699,17.6959512 C27.9242541,17.7684169 27.9420485,17.8049425 27.9762327,17.8775253 C27.9332684,17.8980124 27.9114935,17.9293869 27.9091521,17.9715317 C27.9069278,18.0139107 27.9164104,18.0559385 27.9354927,18.0960932 C27.9678037,18.163642 28.0522105,18.2632678 28.1892984,18.3968436 C29.1181242,19.3534148 29.5710644,19.8396025 30.4531796,20.8268458 C30.4599696,20.8240361 30.4638329,20.822046 30.47074,20.818768 C30.3119944,19.4766885 30.2457333,18.8021366 30.140137,17.4468282 C30.1394346,17.3256618 30.1218742,17.2240458 30.0872218,17.1417463 C30.0696614,17.0999527 30.0365309,17.066588 29.9897033,17.0417693 C29.9433439,17.0171848 29.8986235,17.0143752 29.8557763,17.032638 C29.8236994,16.9585332 29.8075438,16.9220077 29.7759352,16.8472006 C30.3265109,16.6128283 30.7170533,16.3893435 31.2733654,16.1718292 C31.3023985,16.2462852 31.3183199,16.2842155 31.3475872,16.3592568 C31.2788676,16.3860656 31.2428104,16.4484634 31.2417567,16.5449283 C31.240586,16.6416273 31.2437469,16.7608036 31.2500686,16.9028084 C31.3499285,18.7036815 31.4241503,19.6003134 31.6180167,21.3795288 C31.6315967,21.5030366 31.6435377,21.6113255 31.6538398,21.7045124 C31.6646101,21.7974653 31.6819364,21.8718041 31.7055843,21.9263583 C31.7263055,21.9744737 31.7584995,22.0108821 31.8026345,22.0362861 C31.8467696,22.0620413 31.893246,22.0643827 31.9428833,22.042842 C31.9749602,22.1169467 31.9917011,22.1534722 32.0230756,22.2280452 C31.5031719,22.4518813 31.1308923,22.6787611 30.6160227,22.919455 C30.5820727,22.8461698 30.564044,22.8099955 30.5297428,22.7365932 C30.5560833,22.7083795 30.5811361,22.6723223 30.6044328,22.6288897 C30.6272613,22.585457 30.6278466,22.539683 30.6054865,22.492153 C30.5805508,22.4383012 30.542035,22.3817569 30.4915783,22.3231053 C30.4408874,22.2639854 30.365612,22.1842614 30.2645814,22.0833479 C29.3240487,21.0654325 28.8404364,20.5641429 27.8482762,19.5821677 C27.841135,19.5853285 27.8375059,19.5869675 27.8302476,19.5902454 C28.0197824,20.9404028 28.1284225,21.612145 28.3712237,22.9449761 C28.4239048,23.2459606 28.4693275,23.4287054 28.5043312,23.4949665 C28.5602902,23.6005628 28.6285414,23.6477416 28.712597,23.6372054 C28.7497079,23.7088516 28.7697267,23.7443235 28.8073059,23.8159698 C28.3109331,24.0758631 27.949541,24.3212398 27.4594899,24.5970545 C27.4199206,24.5268131 27.3990823,24.4919265 27.35963,24.421568 C27.3919411,24.4034223 27.4191011,24.3762623 27.4397053,24.3390343 C27.4606606,24.3021576 27.457968,24.260598 27.4322128,24.2150582 C27.4027114,24.1630795 27.3631421,24.1120374 27.3122171,24.0640391 C27.2603555,24.0166261 27.205333,23.9657011 27.1469156,23.9125518 C25.7269851,22.5893203 24.9929622,21.9463771 23.4782058,20.7011136 C23.4120617,20.6449205 23.3525907,20.6007855 23.2973341,20.5689427 C23.2417263,20.5370999 23.180265,20.5325342 23.114121,20.5552456 C23.0719762,20.4866431 23.0516061,20.4521078 23.0094613,20.3836224 C23.5547689,20.0504439 23.9430869,19.7784925 24.4955358,19.4639279 C24.5356905,19.5339352 24.5557093,19.5684706 24.5956298,19.6388291 Z M33.4138793,21.5059985 C33.6072773,21.4311913 33.6800943,21.3325021 33.6325642,21.2066529 C32.9124725,19.3059198 32.6662763,18.2451572 31.9466529,16.34419 C31.8990058,16.2185749 31.7657812,16.1965659 31.550023,16.2799191 C31.5205216,16.2049949 31.5058879,16.1676499 31.4768548,16.0927257 C32.3089816,15.7706687 32.5016772,15.7279385 33.343989,15.4433437 C33.3697442,15.5195556 33.3826218,15.5577201 33.4086112,15.6341662 C33.189692,15.708388 33.1025927,15.8100039 33.1464936,15.9366726 C33.8094556,17.8578928 34.1415805,18.8187955 34.8041913,20.7402498 C34.8483263,20.8673868 34.9666831,20.8963029 35.1626567,20.830393 C35.1884119,20.9066049 35.2014066,20.9450036 35.2272788,21.0216838 C34.4816661,21.2734993 34.2228264,21.4088312 33.4861109,21.6942455 C33.4570777,21.618736 33.4434977,21.581508 33.4138793,21.5059985 Z M35.6821506,20.7052579 C35.8105753,20.6638154 35.8547104,20.5797599 35.8140874,20.4514522 C35.1958458,18.5153643 34.8865494,17.546852 34.2683077,15.6108812 C34.2272165,15.483393 34.134849,15.4415993 33.9903858,15.488544 C33.9658013,15.4115126 33.9278709,15.2964337 33.9278709,15.2964337 L35.7832983,14.8148117 C35.7832983,14.8148117 35.8160776,14.9311783 35.8376183,15.0084439 C35.7759229,15.0257701 35.7554358,15.0708417 35.7759229,15.142605 C35.7920784,15.1996176 36.0909557,15.3803722 36.0909557,15.3803722 L39.95201,17.8492414 C39.95201,17.8492414 39.5192057,15.7576858 39.23145,14.3635105 C39.204407,14.2319249 39.0893282,14.1865021 38.8873841,14.2295835 C38.8707603,14.150679 38.8617459,14.1120462 38.8451221,14.0327904 C39.5510485,13.882825 39.9051824,13.8137542 40.6154403,13.6883733 C40.6297227,13.7683314 40.6368639,13.8077837 40.6511463,13.8872736 C40.5025857,13.9131459 40.4648895,14.1248067 40.4648895,14.1248067 L41.4828049,19.0130248 C41.4828049,19.0130248 41.5846549,19.1985792 41.7172942,19.1753996 C41.7313424,19.2546553 41.7378983,19.2951612 41.7517125,19.3744169 C41.0772777,19.493125 40.7407042,19.5590348 40.0700156,19.7037322 C40.0531576,19.6244764 40.0450799,19.5845559 40.028339,19.5062367 C40.118131,19.4865691 40.1569979,19.4446584 40.1429496,19.3788656 C40.1319451,19.3275893 39.9209867,19.162522 39.9209867,19.162522 L35.8603297,16.5522334 C35.8603297,16.5522334 36.4854784,18.6923727 36.9023613,20.1190932 C36.9397063,20.247752 37.0378102,20.2891945 37.1947998,20.24424 C37.2166917,20.3216226 37.2279303,20.3600213 37.2502905,20.437521 C36.6455118,20.6107832 36.344059,20.7027994 35.7443143,20.8973682 C35.7192615,20.8202197 35.706501,20.781821 35.6821506,20.7052579 Z M47.39718,14.6271032 C47.3045784,14.6049771 47.2571654,14.5942068 47.1638614,14.5719636 C47.1761536,14.5265408 47.1821242,14.4818205 47.1798998,14.436983 C47.173461,14.3251821 47.097132,14.2275465 46.9493909,14.1467689 C46.8014156,14.0659912 46.6146905,14.0010179 46.3898008,13.9526684 C46.1643258,13.9050213 45.9196515,13.8759881 45.657651,13.8679104 C45.3945969,13.8598326 45.1471129,13.8683787 44.9146138,13.8912071 C44.626858,13.9195378 44.3458923,13.989311 44.0728873,14.09959 C43.799414,14.2102203 43.5636369,14.3617076 43.3662585,14.5533497 C43.1691143,14.7449917 43.0231292,14.979481 42.9280691,15.2567005 C42.833009,15.5340371 42.8132243,15.8576159 42.8676615,16.2267346 C42.9205767,16.5885951 43.0303874,16.8905161 43.1948694,17.1348392 C43.358532,17.3790453 43.5541544,17.5688142 43.7800976,17.7049655 C44.0063921,17.8409997 44.2534078,17.9326648 44.5225495,17.9801948 C44.7923937,18.0277249 45.0573209,18.0384952 45.3208434,18.0123888 C45.7276583,17.9724683 46.0898699,17.9063243 46.4099367,17.8112642 C46.7295352,17.7166724 47.0031256,17.622666 47.2286006,17.5279571 C47.2067087,17.1432682 47.1957042,16.9511579 47.173461,16.5669373 C46.6098906,16.5987801 46.3284567,16.6185647 45.7653545,16.6672655 C45.662685,16.6761627 45.5879949,16.7050788 45.5410502,16.7543648 C45.4937543,16.8040021 45.4698723,16.9037449 45.4691698,17.053008 C45.3906165,17.0607345 45.3517496,17.0644807 45.272728,17.0720902 C45.216886,16.5021981 45.1889065,16.217135 45.1332987,15.6468916 C45.2140764,15.6388139 45.2544652,15.6349506 45.335477,15.6275752 C45.3625199,15.7527221 45.4031429,15.8295193 45.4582824,15.8576159 C45.5133049,15.886649 45.5934972,15.8957804 45.6979228,15.886649 C46.8158151,15.7900671 47.3748198,15.757756 48.4952877,15.7261474 C48.4977461,15.806925 48.4995021,15.847548 48.5017265,15.9278573 C48.3537512,15.9546662 48.2612666,15.9842846 48.2253264,16.015425 C48.188918,16.0466824 48.1732307,16.1104851 48.1767428,16.2074182 C48.1944202,16.7128053 48.2035516,16.9652062 48.221112,17.4709445 C48.2235704,17.5456345 48.2468671,17.5937499 48.290768,17.6143541 C48.3346689,17.6354265 48.3848915,17.660128 48.443309,17.6882246 C48.4452992,17.7595197 48.4463528,17.7945233 48.4488112,17.8662866 C48.2187706,18.0456364 47.977023,18.1964214 47.724505,18.3203975 C47.4714018,18.4444907 47.2168937,18.5461066 46.9574686,18.6260648 C46.6983948,18.70614 46.4382674,18.7642062 46.1766181,18.8008489 C45.91532,18.8369061 45.6604607,18.8671099 45.4088793,18.8920456 C44.9190624,18.940161 44.4678783,18.9275176 44.0487711,18.8497837 C43.6294298,18.772284 43.2566819,18.6293427 42.9283032,18.4187355 C42.5994563,18.2083624 42.3228221,17.936411 42.0995714,17.599018 C41.876672,17.2612738 41.7219067,16.8626537 41.6424168,16.3992944 C41.5623416,15.9360522 41.5743997,15.5072283 41.6843275,15.1146957 C41.7943724,14.7223974 41.9873022,14.3713073 42.2659266,14.0648205 C42.5443167,13.758685 42.9010261,13.5052305 43.3354694,13.3100764 C43.7695614,13.1146881 44.2652318,12.9882536 44.8195537,12.9328799 C45.1676,12.8986957 45.5023004,12.8919057 45.822016,12.9116904 C46.1416145,12.9311239 46.4265605,12.9621472 46.6752152,13.0028872 C46.9230503,13.0431589 47.1288577,13.0843672 47.2924032,13.124639 C47.4566511,13.1650278 47.5572134,13.1851637 47.5965486,13.1834077 C47.6677266,13.1803639 47.7222807,13.1632718 47.7609135,13.1316631 C47.798961,13.100874 47.8365401,13.0725433 47.87529,13.0488953 C47.9335904,13.0780455 47.961804,13.0927962 48.0199873,13.1217123 C47.7625525,13.7221594 47.6382252,14.0231439 47.39718,14.6271032 Z M52.8887837,16.8262101 C52.9360796,16.8511458 52.9596104,16.8636722 53.0066722,16.888842 C53.0026919,16.9556885 53.0159207,17.0167985 53.0450708,17.0706503 C53.0959959,17.1632519 53.2011239,17.2574925 53.3601037,17.3539574 C53.518381,17.4508905 53.7010087,17.5399801 53.9069332,17.6236845 C54.1126235,17.7073888 54.328733,17.7798546 54.5552616,17.8423694 C54.781439,17.904416 54.9851391,17.9452731 55.1677668,17.9648237 C55.3021621,17.9791061 55.4764779,17.989174 55.692002,17.9957299 C55.9081115,18.002637 56.1228161,17.9896423 56.3365842,17.9573312 C56.5503523,17.9254885 56.73977,17.8690612 56.906008,17.7872299 C57.0715437,17.7055157 57.168711,17.580486 57.194115,17.4106188 C57.2191678,17.2409857 57.166955,17.1048344 57.0370083,17.0036868 C56.9074129,16.9020708 56.7287655,16.8163763 56.5016516,16.7489445 C56.2751229,16.6813957 56.0133566,16.6237977 55.7170548,16.5786091 C55.4202848,16.5333033 55.1185978,16.4846026 54.8094185,16.4328581 C54.5008245,16.3809965 54.1989034,16.3173109 53.9041235,16.2425038 C53.6078218,16.1679308 53.3465236,16.0624516 53.1185902,15.925715 C52.8907738,15.7887442 52.7084973,15.6113846 52.572229,15.3922313 C52.4360777,15.1728439 52.3740311,14.8923465 52.3886647,14.5494513 C52.3987326,14.3187082 52.4707301,14.0932332 52.6057107,13.8753677 C52.7406913,13.6576192 52.9429866,13.4694893 53.2144698,13.3132021 C53.4859529,13.1572661 53.8277945,13.0389093 54.2395263,12.9623462 C54.6514923,12.8859001 55.1331144,12.8740761 55.6779537,12.931557 C56.1434203,12.9809602 56.5416892,13.0598647 56.8749848,13.1630025 C57.2086315,13.2666086 57.4954507,13.3713854 57.733335,13.474055 C57.9718047,13.577544 58.1693001,13.6721358 58.3287482,13.7584157 C58.4880792,13.8442273 58.6228256,13.8969084 58.7352119,13.9159906 C58.8561443,13.9362436 58.9460533,13.9292194 59.0052902,13.8938646 C59.0616004,13.9399898 59.0892287,13.9638719 59.1449536,14.0099971 C58.6906086,14.4978238 58.467475,14.7436688 58.0319782,15.2408611 C57.9839798,15.2152229 57.9608002,15.2026965 57.9129189,15.1772926 C57.9124507,15.0714621 57.8918465,14.9809678 57.851926,14.9072143 C57.7979571,14.808408 57.6986826,14.7042165 57.5537511,14.5961618 C57.4083513,14.4881071 57.2340355,14.3855546 57.0295159,14.2899092 C56.8248792,14.1940296 56.6004578,14.1103253 56.3563689,14.0393814 C56.1122799,13.9684376 55.863274,13.9195027 55.6130975,13.892928 C55.424148,13.8727922 55.225716,13.8660022 55.0207281,13.872558 C54.8160914,13.8795822 54.6294833,13.9026448 54.4621917,13.9408093 C54.2940805,13.9794421 54.1537147,14.0378595 54.0402748,14.1148909 C53.9264837,14.1923907 53.8661932,14.2943578 53.8570618,14.4207924 C53.84395,14.5990885 53.9078697,14.738869 54.0485867,14.8394313 C54.1893037,14.9402277 54.3788385,15.0222931 54.6144985,15.0883201 C54.8499244,15.15423 55.1200027,15.210189 55.4246163,15.2570166 C55.7289958,15.3041954 56.0379411,15.3588667 56.3533251,15.4210303 C56.6676555,15.4826086 56.973791,15.5633863 57.2692733,15.6631291 C57.5646385,15.7621695 57.8206685,15.8923503 58.036778,16.0521496 C58.2523021,16.2118317 58.4130379,16.4082736 58.5202732,16.6388996 C58.6269231,16.8691744 58.6492832,17.1504914 58.5903975,17.4808602 C58.5219121,17.8627395 58.357313,18.1547097 58.0999953,18.3604 C57.841858,18.565622 57.5419271,18.7132461 57.2020757,18.8042087 C56.8614047,18.8956397 56.5048124,18.9407112 56.1301915,18.9411795 C55.7556876,18.9411795 55.4110363,18.925024 55.0931938,18.8909569 C54.651024,18.8435439 54.2808517,18.7864142 53.9856036,18.7135973 C53.6898872,18.6412486 53.4443934,18.5632806 53.2497075,18.4793421 C53.0549046,18.3958719 52.899554,18.3232891 52.7848264,18.2607742 C52.670567,18.1986105 52.5693022,18.1655971 52.4827882,18.1612655 C52.4277658,18.1585729 52.37567,18.1864354 52.3255645,18.2437992 C52.2615277,18.2051664 52.2282801,18.1853817 52.1638921,18.1469831 C52.4459115,17.6164262 52.5913112,17.3523184 52.8887837,16.8262101 Z M51.3818709,15.4337206 C51.3799978,15.953156 50.9505885,16.3767118 50.4099636,16.3707413 C49.8789384,16.3724973 49.4466025,15.9476537 49.447539,15.4282184 C49.4514023,14.910539 49.8907624,14.4904953 50.4179243,14.495178 C50.9508226,14.4975194 51.3846805,14.9146364 51.3818709,15.4337206 Z M61.6684003,19.6057922 C61.6350357,19.735973 61.6942726,19.8201456 61.8452917,19.8593638 C61.8251558,19.9373318 61.8154391,19.9765499 61.7953032,20.054752 C61.1630133,19.8908553 60.845522,19.8144093 60.2092517,19.6733411 C60.2269291,19.5947877 60.2347728,19.5551013 60.2526843,19.4760797 C60.3005656,19.4869671 60.3471591,19.4811137 60.392816,19.4569975 C60.4380046,19.4326471 60.4687938,19.3873414 60.4841298,19.3218998 C60.8761941,17.5838927 61.0725189,16.714655 61.4650514,14.9766479 C60.7106585,14.8061954 60.6255493,14.8023321 59.8805218,14.6007392 C59.8127389,14.5823594 59.7421462,14.5824764 59.6687439,14.6016758 C59.5949904,14.620758 59.5448849,14.6806974 59.5191297,14.7816109 C59.4369472,14.7601872 59.3974949,14.7498852 59.316132,14.7286957 C59.4733557,14.1221609 59.5520261,13.8191862 59.7092498,13.2124174 C59.7929542,13.2340751 59.8342796,13.2449626 59.9177498,13.2668545 C59.890941,13.367768 59.9076819,13.4449165 59.9635238,13.4983 C60.0183121,13.5513323 60.0810611,13.5878578 60.1500148,13.6067059 C62.1961476,14.159506 62.5794317,14.1337508 64.6238084,14.7375929 C64.6927621,14.7577288 64.7651108,14.7601872 64.8415569,14.7441488 C64.9175347,14.7281103 64.9697475,14.669927 65.0005366,14.5693647 C65.0830703,14.5950028 65.1247469,14.6079975 65.2077489,14.6335185 C65.0241846,15.232795 64.933339,15.5317893 64.7497747,16.1310658 C64.6689971,16.1065984 64.6286083,16.0938378 64.5478306,16.0694875 C64.5780345,15.9695105 64.565391,15.892362 64.5127099,15.8374566 C64.4595606,15.7825512 64.3993871,15.7452062 64.33137,15.7256557 C63.587162,15.5054488 63.5155158,15.4789912 62.7651032,15.2884028 C62.3260942,17.0155225 62.1061215,17.8791408 61.6684003,19.6057922 Z M68.3559931,15.9360054 C68.7247606,16.0747322 69.0773726,16.277964 69.4093804,16.5445303 C69.7422077,16.8115648 70.0129884,17.1255439 70.2224249,17.4830728 C70.4315103,17.8409529 70.5534962,18.2358268 70.5900218,18.6654702 C70.6268985,19.0948795 70.5360529,19.5434881 70.3221678,20.0122325 C70.1087509,20.4805087 69.830829,20.8436569 69.4962456,21.1063599 C69.1613111,21.3691799 68.8063577,21.5528612 68.4305661,21.659394 C68.0546574,21.7660439 67.6806218,21.8030378 67.3022546,21.7710779 C66.9241216,21.7393522 66.5742022,21.6629061 66.248399,21.5399836 C65.9230642,21.4175294 65.6095532,21.2448525 65.305642,21.0196117 C65.0013795,20.7947221 64.7449983,20.5203122 64.5350935,20.1931042 C64.3251887,19.865545 64.1824816,19.4943191 64.1061525,19.0766167 C64.0297064,18.6589143 64.0622516,18.2033987 64.2110464,17.710538 C64.35949,17.2174432 64.5847308,16.8190572 64.8934419,16.5198287 C65.2020359,16.2207173 65.5516041,16.0029688 65.9423806,15.8717344 C66.3326888,15.7394464 66.7424304,15.6824338 67.1661033,15.6999942 C67.5907127,15.7177886 67.9875768,15.7973956 68.3559931,15.9360054 Z M67.9936644,16.8998348 C67.7443073,16.8053601 67.4783265,16.755957 67.1985314,16.7508059 C66.9183852,16.7455378 66.6492435,16.7885022 66.3950866,16.8788795 C66.1408126,16.9693738 65.9138157,17.1113786 65.7131594,17.3043084 C65.512503,17.4973552 65.364996,17.7436685 65.2674775,18.0416092 C65.1704272,18.3400183 65.144555,18.6250814 65.1863486,18.8982035 C65.2279082,19.1713256 65.315827,19.4188095 65.449754,19.6422943 C65.5835639,19.865545 65.7509727,20.060465 65.9524485,20.2278737 C66.153456,20.3951654 66.3682777,20.5216 66.5987867,20.608114 C66.8284762,20.6945109 67.0730334,20.7411044 67.3355022,20.7484798 C67.5980881,20.7558551 67.8541181,20.7197979 68.1026557,20.6407763 C68.3516616,20.5609352 68.5815852,20.4340323 68.7941826,20.2565556 C69.0066629,20.079196 69.1753594,19.8476335 69.2986331,19.5595265 C69.4220239,19.2714196 69.4725977,18.9885808 69.4480132,18.7107759 C69.4237799,18.432854 69.3452266,18.1753021 69.2125873,17.9392909 C69.0799481,17.7032797 68.9061006,17.4940773 68.6913959,17.3129715 C68.476223,17.1315145 68.2436068,16.9938413 67.9936644,16.8998348 Z M69.2007282,22.7358322 C69.2340929,22.6630153 69.2516533,22.6257873 69.285135,22.5525021 C69.527468,22.6637177 69.6770822,22.6604398 69.7338607,22.538805 C70.5974791,20.6992991 71.0286444,19.7790193 71.8922627,17.9390451 C71.9492753,17.8174103 71.841806,17.6923806 71.5709082,17.5678191 C71.6042729,17.4945339 71.6221844,17.4581254 71.6561345,17.3850743 C73.2109285,18.0986102 73.9779649,18.4893867 75.4831216,19.3400104 C76.1676244,19.7266894 76.6334421,20.161718 76.8779993,20.6222676 C77.1222054,21.0827002 77.0681195,21.582585 76.7295558,22.1186442 C76.3906409,22.6549375 75.9682558,22.9170551 75.4673173,22.9211525 C74.9659106,22.9245475 74.4046816,22.7414515 73.7667723,22.3807618 C72.965903,21.9287582 72.5609611,21.7124146 71.7442874,21.3018535 C71.3865244,22.0139845 71.20776,22.3698744 70.8495287,23.0821225 C70.7893552,23.2018841 70.8631087,23.3127485 71.0695015,23.4185789 C71.0329759,23.4901081 71.0123718,23.5261654 70.975495,23.5981628 C70.2712076,23.2367707 69.9163713,23.0646792 69.2007282,22.7358322 Z M74.3950819,21.5535519 C74.6189179,21.6806889 74.8328031,21.7491743 75.0404836,21.7586569 C75.2486323,21.7682565 75.4259919,21.6521241 75.5709234,21.4085034 C75.7152696,21.1649997 75.7320104,20.9526365 75.6186876,20.7738721 C75.5054818,20.5949905 75.3324538,20.4392887 75.1019448,20.3082884 C74.2106981,19.8011453 73.7605677,19.5599831 72.8500046,19.1022431 C72.5926868,19.6141861 72.4644962,19.8703331 72.2071785,20.3823932 C73.0909327,20.8271385 73.5287709,21.0609254 74.3950819,21.5535519 Z M39.5150849,23.3601263 C41.8406615,26.7867374 45.7049937,28.9643387 49.9184258,29.1088019 L49.9184258,30.6029542 C49.9139772,30.6056468 49.9094115,30.6064663 49.9054312,30.6091589 L47.9379688,31.8994939 C47.6927091,32.060698 47.3480578,31.999705 47.1728055,31.7629914 L45.7739474,29.8732628 C45.5981097,29.6365492 45.2216156,29.4987589 44.9350306,29.5667761 L42.6448088,30.1063473 C42.3589262,30.1735449 42.0568881,29.9979414 41.973652,29.7165074 L41.3036658,27.4614063 C41.2211321,27.1797382 40.9133576,26.9206644 40.622441,26.8863631 L38.2852745,26.6106655 C38.2645533,26.6079729 38.2452369,26.6022366 38.2261547,26.5969684 C34.3809047,27.0287191 31.516108,27.7300798 27.4979471,28.8997166 C27.4746504,28.9059213 27.4512366,28.9094334 27.4267691,28.9094334 C27.3273775,28.9094334 27.2338393,28.8510159 27.1934505,28.7558388 C27.1422913,28.6377161 27.1868947,28.4998088 27.297759,28.4353037 C30.6555335,26.458944 34.255992,24.9344709 37.9976359,23.9040291 C38.0160157,23.898761 38.0342785,23.897005 38.0531266,23.8960684 L39.5150849,23.3601263 Z M73.2534245,28.6346255 C73.3631182,28.7008865 73.4058484,28.8391451 73.3539869,28.95598 C73.311842,29.0504547 73.2192404,29.1069991 73.1207853,29.1069991 C73.0962008,29.1069991 73.0704456,29.1039553 73.0465635,29.0959946 C69.7113834,28.0796011 66.5811912,27.1904617 62.4213767,26.6563927 L60.0947465,26.9215541 C59.8026592,26.9557383 59.4945335,27.2124707 59.4097755,27.4941388 L58.7318286,29.7467814 C58.6474218,30.0290349 58.3444471,30.203819 58.0591499,30.1348653 L55.7706841,29.5852261 C55.4852698,29.517092 55.1080733,29.6537115 54.9310649,29.8899569 L53.5241291,31.7753539 C53.3487597,32.0106627 53.0044596,32.0711874 52.7594341,31.9088126 L50.9804528,30.7315663 L50.9804528,29.1044236 C51.6437661,29.0731661 52.3142205,28.991569 52.9849091,28.8555348 C56.5030681,28.1423501 59.4026343,26.0824032 61.2605201,23.3226174 C61.2605201,23.3226174 62.4226645,23.767831 62.8166018,23.8980118 C66.4345037,25.095394 69.9849738,26.6472613 73.2534245,28.6346255 Z M50.2909747,22.9801085 C50.2613562,22.979172 50.2281086,22.9783525 50.1991925,22.9783525 C48.7144058,22.948734 47.3537123,22.4192307 46.2724625,21.5558465 C47.548281,21.4325728 48.8360405,21.3670141 50.1335168,21.3670141 L50.3603966,21.3674824 C50.5561361,21.3674824 50.7488317,21.3713456 50.9403567,21.3746236 C52.082014,21.3971008 53.2139547,21.4680447 54.3357103,21.5847625 L54.3330177,21.5965865 C54.3323153,21.5963524 54.3309104,21.5961182 54.3291544,21.5961182 C53.2165302,22.4681656 51.8139259,22.9876009 50.2909747,22.9801085 Z M55.4215725,21.7130936 C57.2455083,21.9301396 59.0427523,22.254538 60.8046415,22.6914396 C58.5903975,26.0912419 54.7586105,28.3403724 50.3995445,28.3403724 C45.9923631,28.3403724 42.124753,26.0413705 39.922333,22.5792875 C41.6474625,22.1704824 43.4042006,21.8689125 45.1824794,21.6713 C46.5100425,22.8679798 48.2562444,23.6119536 50.1785181,23.6511717 C50.2151608,23.65164 50.2479401,23.65164 50.2837632,23.6535131 C52.233197,23.661825 54.0169781,22.9419674 55.3811837,21.7513752 L55.3824715,21.7513752 L55.3917199,21.7420097 C55.4009684,21.7338148 55.410568,21.7270248 55.4193482,21.7190641 C55.4184117,21.7185959 55.417241,21.7185959 55.4163044,21.7185959 L55.4215725,21.7130936 Z M57.1915395,24.5836267 C57.5023578,24.3321624 57.5181621,23.9137576 57.2700928,23.6070367 C57.1691793,23.4822411 57.0699047,23.4184384 56.9570502,23.3861274 C56.8454834,23.3526456 56.7225609,23.3514749 56.5750539,23.3623624 C56.5351333,23.3623624 56.4842083,23.3663427 56.4393708,23.3599039 C56.3937139,23.3531139 56.3489935,23.3388315 56.3208969,23.3031254 C56.2693866,23.2397911 56.3032195,23.1516381 56.354964,23.1087908 C56.4582189,23.0255547 56.641432,23.0330471 56.7611936,23.0734359 L56.3554323,22.5723804 C56.2206858,22.5981356 56.0779787,22.6593627 55.9708605,22.746228 C55.5896837,23.054939 55.751356,23.5038988 55.9076432,23.6969457 C56.0042252,23.8170585 56.1145042,23.8808612 56.2312221,23.9129381 C56.351569,23.9454833 56.4797596,23.946771 56.6219985,23.9438443 C56.666836,23.9404493 56.7089808,23.9385762 56.7480819,23.946771 C56.7892902,23.9533269 56.8258158,23.9714726 56.8577756,24.0104566 C56.9158418,24.0829223 56.8762725,24.1765776 56.8148113,24.226449 C56.7011372,24.3182311 56.519329,24.3133142 56.3841142,24.2715206 L56.8015825,24.7873268 C56.9420653,24.7463526 57.0777483,24.6763454 57.1915395,24.5836267 Z M55.0413323,25.8777079 L55.55468,25.620156 L54.83412,24.1854748 L55.1287828,24.0372654 L54.8960496,23.5737891 L53.8064879,24.1217893 L54.03887,24.5845632 L54.3204211,24.4429097 L55.0413323,25.8777079 Z M53.1662373,26.5512062 L53.7719526,26.4062747 L53.1491452,25.6453259 C53.3508552,25.5046089 53.4009608,25.2780803 53.3465236,25.050381 C53.216577,24.5050733 52.8314198,24.4459535 52.3460516,24.5618518 L51.8057779,24.6905107 L52.2998093,26.7579501 L52.8589311,26.6244914 L52.7271113,26.0734474 C52.7029951,25.9717144 52.6733766,25.8717374 52.6466849,25.7714092 L52.6505482,25.7646192 L53.1662373,26.5512062 Z M52.4718423,25.0014929 C52.6233296,24.9561872 52.751169,25.0073464 52.7943675,25.1883351 C52.8263273,25.3226133 52.7776266,25.4701203 52.629066,25.5058264 L52.5930087,25.5113286 L52.4718423,25.0014929 Z M50.9732999,25.2808899 L50.9809094,24.7797173 L49.9135909,24.7625082 L49.8802262,26.8861407 L50.9475447,26.9028816 L50.9552713,26.4018261 L50.4624106,26.3942166 L50.4676787,26.0699353 L50.9098485,26.0774277 L50.9181604,25.576021 L50.4756394,25.5687627 L50.4804392,25.2737487 L50.9732999,25.2808899 Z M48.9434397,25.4045148 C49.0746741,24.8629534 48.7379835,24.6132451 48.250508,24.4948883 L47.7413747,24.3719658 L47.2419581,26.4363614 L47.8007287,26.571225 L47.9642742,25.8951512 C48.4456621,26.0260344 48.8138442,25.9412764 48.9434397,25.4045148 Z M48.2338608,24.9605656 C48.3704803,24.9939303 48.4134447,25.1289109 48.3816019,25.2601453 C48.344491,25.4130375 48.2283585,25.4748499 48.076637,25.4295442 L48.1921842,24.9535414 L48.2338608,24.9605656 Z M46.1107199,24.7862732 L47.021283,24.1133603 L46.4527957,23.8090978 L46.2639633,23.9989838 C46.2030874,24.0588061 46.1519282,24.1238965 46.0964375,24.1866455 L46.0911694,24.1838359 C46.1100175,24.1015363 46.1377629,24.0202904 46.1502893,23.9377567 L46.1892733,23.6675614 L45.6257029,23.3647037 L45.5719682,24.4974638 L44.5965489,25.2245797 L45.1481782,25.5199449 L45.4159151,25.2896701 C45.4726936,25.2310185 45.5311111,25.1689719 45.5884749,25.1100862 L45.5932747,25.11313 C45.5757144,25.1933223 45.5569833,25.2758559 45.5398913,25.3562824 L45.4882638,25.7022214 L46.0494928,26.0036742 L46.1107199,24.7862732 Z M44.1089563,23.8308727 L44.4437738,23.4578907 L44.1149268,23.1627596 L44.3121881,22.9427869 L44.6788484,23.2716338 L45.0139,22.8993543 L44.2200548,22.1860526 L42.8016462,23.765197 L43.5956085,24.4781475 L43.9303089,24.1055167 L43.5636487,23.7763185 L43.7802264,23.5357416 L44.1089563,23.8308727 Z M60.1909245,28.2045102 C60.1909245,28.0771179 60.2145292,27.9617171 60.2617393,27.8583045 C60.3089494,27.7548919 60.3722699,27.6668427 60.4517028,27.5941541 C60.5311357,27.5214656 60.6229317,27.4652639 60.7270937,27.4255475 C60.8312556,27.385831 60.9402868,27.3659731 61.0541905,27.3659731 C61.1680943,27.3659731 61.2771255,27.385831 61.3812874,27.4255475 C61.4854494,27.4652639 61.5772454,27.5214656 61.6566783,27.5941541 C61.7361112,27.6668427 61.7994317,27.7548919 61.8466418,27.8583045 C61.8938519,27.9617171 61.9174566,28.0771179 61.9174566,28.2045102 C61.9174566,28.3334012 61.8938519,28.4495513 61.8466418,28.5529639 C61.7994317,28.6563765 61.7361112,28.7448004 61.6566783,28.8182384 C61.5772454,28.8916763 61.4854494,28.947878 61.3812874,28.986845 C61.2771255,29.0258121 61.1680943,29.0452953 61.0541905,29.0452953 C60.9402868,29.0452953 60.8312556,29.0258121 60.7270937,28.986845 C60.6229317,28.947878 60.5311357,28.8916763 60.4517028,28.8182384 C60.3722699,28.7448004 60.3089494,28.6563765 60.2617393,28.5529639 C60.2145292,28.4495513 60.1909245,28.3334012 60.1909245,28.2045102 Z M60.4202296,28.2045102 C60.4202296,28.3004291 60.4367154,28.388853 60.4696875,28.4697846 C60.5026596,28.5507162 60.547621,28.620781 60.6045728,28.6799809 C60.6615247,28.7391809 60.728592,28.7852662 60.8057768,28.8182384 C60.8829615,28.8512105 60.9657653,28.8676963 61.0541905,28.8676963 C61.1411171,28.8676963 61.2231715,28.8512105 61.3003563,28.8182384 C61.377541,28.7852662 61.4446083,28.7391809 61.5015602,28.6799809 C61.5585121,28.620781 61.6038481,28.5507162 61.6375696,28.4697846 C61.671291,28.388853 61.6881515,28.3004291 61.6881515,28.2045102 C61.6881515,28.1085913 61.671291,28.020542 61.6375696,27.9403598 C61.6038481,27.8601775 61.5585121,27.7908622 61.5015602,27.7324116 C61.4446083,27.673961 61.377541,27.6282503 61.3003563,27.5952782 C61.2231715,27.562306 61.1411171,27.5458202 61.0541905,27.5458202 C60.9657653,27.5458202 60.8829615,27.562306 60.8057768,27.5952782 C60.728592,27.6282503 60.6615247,27.673961 60.6045728,27.7324116 C60.547621,27.7908622 60.5026596,27.8601775 60.4696875,27.9403598 C60.4367154,28.020542 60.4202296,28.1085913 60.4202296,28.2045102 Z M60.7192253,27.7324116 L61.0744233,27.7324116 C61.1928233,27.7324116 61.28387,27.7533935 61.3475661,27.795358 C61.4112623,27.8373226 61.4431099,27.9092607 61.4431099,28.0111746 C61.4431099,28.0546378 61.4367404,28.0917309 61.4240011,28.1224549 C61.4112619,28.153179 61.393652,28.1782824 61.371171,28.1977659 C61.34869,28.2172494 61.3224626,28.2322366 61.2924879,28.2427277 C61.2625133,28.2532188 61.230291,28.259963 61.1958201,28.2629605 L61.4476061,28.6743607 L61.2520223,28.6743607 L61.0227173,28.2719528 L60.9058167,28.2719528 L60.9058167,28.6743607 L60.7192253,28.6743607 L60.7192253,27.7324116 Z M60.9058167,28.1258271 L61.0721753,28.1258271 C61.1261297,28.1258271 61.1703416,28.1183335 61.2048125,28.1033462 C61.2392834,28.0883589 61.2565185,28.0523898 61.2565185,27.9954379 C61.2565185,27.9699595 61.2505237,27.9497269 61.2385338,27.9347395 C61.226544,27.9197522 61.2111822,27.9081372 61.192448,27.8998942 C61.1737138,27.8916511 61.1527319,27.886031 61.1295015,27.8830335 C61.1062712,27.880036 61.0841652,27.8785373 61.0631829,27.8785373 L60.9058167,27.8785373 L60.9058167,28.1258271 Z" id="path-1"></path>
    </defs>
    <g id="Symbols" stroke="none" stroke-width="1" fill="none" fill-rule="evenodd">
        <g id="WS-Logo" transform="translate(-4.000000, 0.000000)">
            <g>
                <rect id="Rectangle" x="0" y="0" width="100" height="32"></rect>
                <mask id="mask-2" fill="white">
                    <use xlink:href="#path-1"></use>
                </mask>
                <use id="Combined-Shape" fill="#006938" xlink:href="#path-1"></use>
                <g id="🎨--Color-/-Primary-/-Green-/-100%" mask="url(#mask-2)" fill="#006938">
                    <rect x="0" y="0" width="100" height="32"></rect>
                </g>
            </g>
        </g>
    </g>
</svg>